<svg width="838" height="338" viewBox="0 0 838 338" fill="none" xmlns="http://www.w3.org/2000/svg">
<path d="M175.679 338H0.405405V315.898C13.4267 315.898 23.3641 314.87 30.2174 312.814C37.0707 310.758 41.6967 306.303 44.0954 299.45C46.8367 292.597 48.2074 282.145 48.2074 268.096V62.496C48.2074 52.216 47.0081 44.1633 44.6094 38.338C42.5534 32.5127 38.0987 28.4006 31.2454 26.002C24.3921 23.6033 14.1121 22.404 0.405405 22.404V0.301997H167.969C191.956 0.301997 214.058 3.04333 234.275 8.52598C254.835 13.666 271.283 22.5753 283.619 35.254C296.298 47.59 302.637 64.7233 302.637 86.654C302.637 105.501 298.868 120.749 291.329 132.4C283.791 144.051 273.853 153.131 261.517 159.642C249.181 166.153 235.817 171.121 221.425 174.548V177.118C226.908 180.545 232.733 186.199 238.901 194.08C245.069 201.619 253.465 212.927 264.087 228.004C274.71 243.081 289.273 263.641 307.777 289.684C315.659 300.992 323.711 308.188 331.935 311.272C340.502 314.356 350.611 315.898 362.261 315.898V338H245.583C233.933 317.44 224.338 300.478 216.799 287.114C209.261 273.75 202.75 262.785 197.267 254.218C192.127 245.309 187.33 237.256 182.875 230.06C178.763 222.864 174.137 215.154 168.997 206.93C164.543 199.049 159.917 194.08 155.119 192.024C150.665 189.968 143.983 188.94 135.073 188.94H124.793V268.61C124.793 282.317 125.993 292.597 128.391 299.45C130.79 306.303 135.587 310.758 142.783 312.814C149.979 314.87 160.945 315.898 175.679 315.898V338ZM124.793 163.754L144.325 164.268C161.459 163.24 175.851 160.499 187.501 156.044C199.152 151.589 207.89 144.222 213.715 133.942C219.883 123.319 222.967 108.756 222.967 90.252C222.967 70.72 217.656 55.1287 207.033 43.478C196.753 31.4847 179.62 25.488 155.633 25.488C150.151 25.488 144.839 25.6593 139.699 26.002C134.559 26.002 129.591 26.3446 124.793 27.03V163.754ZM490.512 338H359.956V315.898C373.663 315.898 383.772 314.87 390.282 312.814C397.136 310.758 401.59 305.789 403.646 297.908C406.045 290.027 407.244 277.348 407.244 259.872V70.206C407.244 57.1847 406.045 47.2473 403.646 40.394C401.59 33.5406 397.136 28.9147 390.282 26.516C383.772 23.7747 374.006 22.404 360.984 22.404V0.301997H505.418L602.05 238.284H606.162L702.28 0.301997H836.948V22.404C825.298 22.404 816.217 23.7747 809.706 26.516C803.196 28.9147 798.741 33.5406 796.342 40.394C793.944 47.2473 792.744 57.0133 792.744 69.692V274.264C792.744 285.572 793.944 294.31 796.342 300.478C799.084 306.303 803.71 310.415 810.22 312.814C816.731 314.87 825.812 315.898 837.462 315.898V338H671.44V315.898C684.462 315.898 694.228 314.87 700.738 312.814C707.249 310.415 711.532 306.303 713.588 300.478C715.644 294.31 716.672 285.572 716.672 274.264V69.692H713.588L602.05 338H561.444L448.364 69.692H445.28V259.872C445.28 277.348 446.308 290.027 448.364 297.908C450.763 305.789 455.218 310.758 461.728 312.814C468.239 314.87 477.834 315.898 490.512 315.898V338Z" fill="#DC143C"/>
</svg>
