<svg width="1294" height="1294" viewBox="0 0 1294 1294" fill="none" xmlns="http://www.w3.org/2000/svg">
<path fill-rule="evenodd" clip-rule="evenodd" d="M647 1294C1004.33 1294 1294 1004.33 1294 647C1294 289.672 1004.33 0 647 0C289.672 0 0 289.672 0 647C0 1004.33 289.672 1294 647 1294ZM227.405 781H402.679V758.898C387.945 758.898 376.979 757.87 369.783 755.814C362.587 753.758 357.79 749.303 355.391 742.45C352.993 735.597 351.793 725.317 351.793 711.61V631.94H362.073C370.983 631.94 377.665 632.968 382.119 635.024C386.917 637.08 391.543 642.049 395.997 649.93C401.137 658.154 405.763 665.864 409.875 673.06C414.33 680.256 419.127 688.309 424.267 697.218C429.75 705.785 436.261 716.75 443.799 730.114C451.338 743.478 460.933 760.44 472.583 781H586.957H589.261H717.512V758.898C704.834 758.898 695.239 757.87 688.729 755.814C682.218 753.758 677.763 748.789 675.365 740.908C673.308 733.027 672.281 720.348 672.281 702.872V512.692H675.365L788.444 781H829.051L940.588 512.692H943.672V717.264C943.672 728.572 942.645 737.31 940.588 743.478C938.532 749.303 934.249 753.415 927.739 755.814C921.228 757.87 911.462 758.898 898.44 758.898V781H1064.46V758.898C1052.81 758.898 1043.73 757.87 1037.22 755.814C1030.71 753.415 1026.08 749.303 1023.34 743.478C1020.94 737.31 1019.74 728.572 1019.74 717.264V512.692C1019.74 500.013 1020.94 490.247 1023.34 483.394C1025.74 476.541 1030.2 471.915 1036.71 469.516C1043.22 466.775 1052.3 465.404 1063.95 465.404V443.302H929.281L833.162 681.284H829.051L732.418 443.302H587.984V465.404C601.006 465.404 610.772 466.775 617.282 469.516C624.136 471.915 628.59 476.541 630.646 483.394C633.045 490.247 634.244 500.185 634.244 513.206V702.872C634.244 720.348 633.045 733.027 630.646 740.908C628.59 748.789 624.136 753.758 617.282 755.814C610.989 757.802 601.333 758.828 588.314 758.895C577.062 758.813 567.269 757.272 558.935 754.272C550.711 751.188 542.659 743.992 534.777 732.684C516.273 706.641 501.71 686.081 491.087 671.004C480.465 655.927 472.069 644.619 465.901 637.08C459.733 629.199 453.908 623.545 448.426 620.118V617.548C462.817 614.121 476.181 609.153 488.517 602.642C500.854 596.131 510.791 587.051 518.329 575.4C525.868 563.749 529.637 548.501 529.637 529.654C529.637 507.723 523.298 490.59 510.619 478.254C498.283 465.575 481.835 456.666 461.275 451.526C441.058 446.043 418.956 443.302 394.969 443.302H227.405V465.404C241.112 465.404 251.392 466.603 258.246 469.002C265.099 471.401 269.553 475.513 271.609 481.338C274.008 487.163 275.208 495.216 275.208 505.496V711.096C275.208 725.145 273.837 735.597 271.095 742.45C268.697 749.303 264.071 753.758 257.217 755.814C250.364 757.87 240.427 758.898 227.405 758.898V781ZM371.325 607.268L351.793 606.754V470.03C356.591 469.345 361.559 469.002 366.699 469.002C371.839 468.659 377.151 468.488 382.633 468.488C406.62 468.488 423.753 474.485 434.033 486.478C444.656 498.129 449.968 513.72 449.968 533.252C449.968 551.756 446.883 566.319 440.715 576.942C434.89 587.222 426.152 594.589 414.501 599.044C402.851 603.499 388.459 606.24 371.325 607.268Z" fill="url(#paint0_linear_101_23)"/>
<defs>
<linearGradient id="paint0_linear_101_23" x1="647" y1="0" x2="647" y2="1294" gradientUnits="userSpaceOnUse">
<stop stop-color="#DC143C"/>
<stop offset="1" stop-color="#760B20" stop-opacity="0"/>
</linearGradient>
</defs>
</svg>
