<svg width="404" height="401" viewBox="0 0 404 401" fill="none" xmlns="http://www.w3.org/2000/svg">
<path d="M388 190L388 205" stroke="#DC143C" stroke-width="7" stroke-linecap="round"/>
<path d="M400 194L400 199" stroke="#DC143C" stroke-width="7" stroke-linecap="round"/>
<path d="M376 215L376 183" stroke="#DC143C" stroke-width="7" stroke-linecap="round"/>
<path d="M364 164L364 231" stroke="#DC143C" stroke-width="7" stroke-linecap="round"/>
<path d="M352 80L352 303" stroke="#DC143C" stroke-width="7" stroke-linecap="round"/>
<path d="M340 180L340 210" stroke="#DC143C" stroke-width="7" stroke-linecap="round"/>
<path d="M328 158L328 233" stroke="#DC143C" stroke-width="7" stroke-linecap="round"/>
<path d="M316 100L316 295" stroke="#DC143C" stroke-width="7" stroke-linecap="round"/>
<path d="M304 114L304 283" stroke="#DC143C" stroke-width="7" stroke-linecap="round"/>
<path d="M292 32L292 350" stroke="#DC143C" stroke-width="7" stroke-linecap="round"/>
<path d="M280 174L280 222" stroke="#DC143C" stroke-width="7" stroke-linecap="round"/>
<path fill-rule="evenodd" clip-rule="evenodd" d="M235.525 65.2174C235.525 63.2844 233.958 61.7174 232.025 61.7174C230.092 61.7174 228.525 63.2844 228.525 65.2174V143.231C230.933 144.129 233.27 145.166 235.525 146.333V65.2174ZM235.525 254.705C233.27 255.871 230.933 256.909 228.525 257.806V324.139C228.525 326.072 230.092 327.639 232.025 327.639C233.958 327.639 235.525 326.072 235.525 324.139V254.705Z" fill="#DC143C"/>
<path fill-rule="evenodd" clip-rule="evenodd" d="M264.525 223.261C267.412 216.229 269 208.554 269 200.519C269 192.483 267.412 184.809 264.525 177.776L264.525 147.956C264.525 146.023 266.092 144.456 268.025 144.456C269.958 144.456 271.525 146.023 271.525 147.956L271.525 249.188C271.525 251.121 269.958 252.688 268.025 252.688C266.092 252.688 264.525 251.121 264.525 249.188L264.525 223.261Z" fill="#DC143C"/>
<path fill-rule="evenodd" clip-rule="evenodd" d="M259.525 116.807C259.525 114.874 257.958 113.307 256.025 113.307C254.092 113.307 252.525 114.874 252.525 116.807L252.525 159.17C255.13 161.945 257.475 164.954 259.525 168.16L259.525 116.807ZM259.525 232.877C257.475 236.084 255.13 239.092 252.525 241.867L252.525 276.443C252.525 278.376 254.092 279.943 256.025 279.943C257.958 279.943 259.525 278.376 259.525 276.443L259.525 232.877Z" fill="#DC143C"/>
<path fill-rule="evenodd" clip-rule="evenodd" d="M247.525 57.4303C247.525 55.4973 245.958 53.9303 244.025 53.9303C242.092 53.9303 240.525 55.4973 240.525 57.4303L240.525 149.215C242.984 150.786 245.323 152.52 247.525 154.401L247.525 57.4303ZM247.525 246.637C245.323 248.517 242.984 250.251 240.525 251.822L240.525 339.713C240.525 341.646 242.092 343.213 244.025 343.213C245.958 343.213 247.525 341.646 247.525 339.713L247.525 246.637Z" fill="#DC143C"/>
<path fill-rule="evenodd" clip-rule="evenodd" d="M223.525 4.86742C223.526 2.93443 221.959 1.36732 220.026 1.3672C218.093 1.36708 216.526 2.93399 216.525 4.86698L216.517 140.046C218.898 140.435 221.234 140.955 223.517 141.597L223.525 4.86742ZM223.509 259.443C221.226 260.084 218.89 260.604 216.509 260.993L216.5 397.143C216.5 399.076 218.067 400.643 220 400.644C221.933 400.644 223.5 399.077 223.5 397.144L223.509 259.443Z" fill="#DC143C"/>
<mask id="path-17-inside-1_0_1" fill="white">
<path fill-rule="evenodd" clip-rule="evenodd" d="M206 397.037C206 399.246 204.208 401.041 201.999 400.999C148.813 399.995 98.0245 378.992 60.336 342.307C21.7035 304.702 0 253.699 0 200.519C0 147.338 21.7035 96.3352 60.336 58.7307C98.0245 22.0451 148.813 1.04254 201.999 0.0380205C204.208 -0.00369575 206 1.79111 206 4.00025V135.034C206 137.244 204.207 139.022 202.002 139.158C186.709 140.101 172.235 146.433 161.336 157.043C149.49 168.573 142.835 184.212 142.835 200.519C142.835 216.825 149.49 232.464 161.336 243.995C172.235 254.604 186.709 260.936 202.002 261.88C204.207 262.016 206 263.794 206 266.003L206 397.037ZM143.198 181.5C136.109 197.436 141.005 214.609 143.198 219.537C143.984 221.303 143.189 223.372 141.423 224.158C139.656 224.943 137.588 224.149 136.802 222.382C134.209 216.552 128.576 197.146 136.802 178.655C137.588 176.889 139.656 176.094 141.423 176.88C143.189 177.665 143.984 179.734 143.198 181.5ZM17.978 238.654C12.4067 203.116 12.4101 181.032 19.9927 145.034C20.3909 143.143 19.1805 141.283 17.2892 140.879C15.3979 140.474 13.5418 141.679 13.1436 143.57C5.36977 180.476 5.37318 203.421 11.0633 239.717C11.3628 241.628 13.1536 242.939 15.063 242.645C16.9725 242.351 18.2775 240.564 17.978 238.654ZM43.2361 111.293C15.9229 179.095 24.2381 245.891 47.9994 280.624C49.0894 282.218 48.679 284.397 47.0829 285.492C45.4867 286.586 43.3092 286.182 42.2192 284.589C16.8399 247.49 8.77497 178.125 36.7449 108.693C37.4679 106.898 39.5072 106.025 41.2997 106.743C43.0922 107.461 43.9591 109.499 43.2361 111.293ZM60.8029 271.935C51.2223 260.397 38.0645 233.944 39.0762 182.025C39.114 180.082 37.5864 178.506 35.6641 178.506C33.7418 178.505 32.1528 180.08 32.1149 182.023C31.0792 235.173 44.5392 263.399 55.4336 276.52C56.6577 277.994 58.852 278.163 60.3346 276.897C61.8173 275.631 62.0269 273.409 60.8029 271.935ZM67.9409 121.082C53.6284 144.425 47.3146 176.348 51.4617 209.874C51.7002 211.802 50.3437 213.534 48.4318 213.744C46.52 213.953 44.7768 212.559 44.5383 210.631C40.2273 175.78 46.7276 142.212 61.9873 117.325C62.9919 115.686 65.139 115.199 66.783 116.237C68.4271 117.275 68.9455 119.444 67.9409 121.082ZM84.5018 262.981C65.8819 238.68 55.5158 202.288 66.4087 152.556C66.8245 150.657 65.6354 148.802 63.7529 148.412C61.8703 148.022 60.0071 149.244 59.5913 151.143C48.3122 202.638 58.9331 241.193 78.9474 267.314C80.1155 268.839 82.3058 269.104 83.8396 267.908C85.3734 266.711 85.6699 264.505 84.5018 262.981ZM80.6355 137.537C68.8789 177.594 72.3452 202.144 77.6288 226.954C78.0317 228.846 76.826 230.701 74.9356 231.098C73.0453 231.495 71.1863 230.283 70.7834 228.391C65.3482 202.869 61.7321 177.069 73.9192 135.545C74.4631 133.692 76.4076 132.635 78.2622 133.186C80.1169 133.736 81.1794 135.684 80.6355 137.537ZM99.874 252.085C86.2514 225.286 79.071 197.653 88.9092 152.564C89.3226 150.67 88.1289 148.814 86.243 148.419C84.3571 148.024 82.4932 149.239 82.0798 151.134C71.8649 197.949 79.356 227.222 93.6378 255.318C94.5106 257.035 96.6143 257.704 98.3363 256.811C100.058 255.918 100.747 253.803 99.874 252.085ZM105.875 140.046C90.8593 177.263 95.4507 207.983 100.786 222.204C101.466 224.018 100.551 226.032 98.7429 226.702C96.9343 227.373 94.9167 226.446 94.2363 224.632C88.3097 208.833 83.6873 176.298 99.3844 137.393C100.106 135.603 102.145 134.747 103.937 135.479C105.729 136.212 106.597 138.257 105.875 140.046ZM122.844 244.188C112.201 229.256 102.798 199.709 108.75 172.596C109.167 170.695 107.981 168.839 106.101 168.451C104.22 168.063 102.358 169.289 101.941 171.189C95.4988 200.536 105.553 232.071 117.156 248.348C118.27 249.911 120.447 250.247 122.018 249.099C123.589 247.95 123.959 245.751 122.844 244.188ZM127.647 160.486C116.226 176.682 114.863 194.086 119.314 209.489C119.854 211.358 118.791 213.29 116.94 213.805C115.09 214.32 113.152 213.223 112.612 211.354C107.623 194.086 109.186 174.445 121.932 156.369C123.039 154.799 125.216 154.448 126.794 155.585C128.372 156.721 128.754 158.916 127.647 160.486ZM138.647 233.223C132.399 225.948 126.255 210.229 129.045 194.83C129.393 192.912 128.142 191.102 126.252 190.789C124.361 190.475 122.547 191.776 122.199 193.694C118.989 211.409 125.896 229.216 133.353 237.898C134.601 239.352 136.798 239.483 138.26 238.192C139.722 236.901 139.895 234.676 138.647 233.223Z"/>
</mask>
<path fill-rule="evenodd" clip-rule="evenodd" d="M206 397.037C206 399.246 204.208 401.041 201.999 400.999C148.813 399.995 98.0245 378.992 60.336 342.307C21.7035 304.702 0 253.699 0 200.519C0 147.338 21.7035 96.3352 60.336 58.7307C98.0245 22.0451 148.813 1.04254 201.999 0.0380205C204.208 -0.00369575 206 1.79111 206 4.00025V135.034C206 137.244 204.207 139.022 202.002 139.158C186.709 140.101 172.235 146.433 161.336 157.043C149.49 168.573 142.835 184.212 142.835 200.519C142.835 216.825 149.49 232.464 161.336 243.995C172.235 254.604 186.709 260.936 202.002 261.88C204.207 262.016 206 263.794 206 266.003L206 397.037ZM143.198 181.5C136.109 197.436 141.005 214.609 143.198 219.537C143.984 221.303 143.189 223.372 141.423 224.158C139.656 224.943 137.588 224.149 136.802 222.382C134.209 216.552 128.576 197.146 136.802 178.655C137.588 176.889 139.656 176.094 141.423 176.88C143.189 177.665 143.984 179.734 143.198 181.5ZM17.978 238.654C12.4067 203.116 12.4101 181.032 19.9927 145.034C20.3909 143.143 19.1805 141.283 17.2892 140.879C15.3979 140.474 13.5418 141.679 13.1436 143.57C5.36977 180.476 5.37318 203.421 11.0633 239.717C11.3628 241.628 13.1536 242.939 15.063 242.645C16.9725 242.351 18.2775 240.564 17.978 238.654ZM43.2361 111.293C15.9229 179.095 24.2381 245.891 47.9994 280.624C49.0894 282.218 48.679 284.397 47.0829 285.492C45.4867 286.586 43.3092 286.182 42.2192 284.589C16.8399 247.49 8.77497 178.125 36.7449 108.693C37.4679 106.898 39.5072 106.025 41.2997 106.743C43.0922 107.461 43.9591 109.499 43.2361 111.293ZM60.8029 271.935C51.2223 260.397 38.0645 233.944 39.0762 182.025C39.114 180.082 37.5864 178.506 35.6641 178.506C33.7418 178.505 32.1528 180.08 32.1149 182.023C31.0792 235.173 44.5392 263.399 55.4336 276.52C56.6577 277.994 58.852 278.163 60.3346 276.897C61.8173 275.631 62.0269 273.409 60.8029 271.935ZM67.9409 121.082C53.6284 144.425 47.3146 176.348 51.4617 209.874C51.7002 211.802 50.3437 213.534 48.4318 213.744C46.52 213.953 44.7768 212.559 44.5383 210.631C40.2273 175.78 46.7276 142.212 61.9873 117.325C62.9919 115.686 65.139 115.199 66.783 116.237C68.4271 117.275 68.9455 119.444 67.9409 121.082ZM84.5018 262.981C65.8819 238.68 55.5158 202.288 66.4087 152.556C66.8245 150.657 65.6354 148.802 63.7529 148.412C61.8703 148.022 60.0071 149.244 59.5913 151.143C48.3122 202.638 58.9331 241.193 78.9474 267.314C80.1155 268.839 82.3058 269.104 83.8396 267.908C85.3734 266.711 85.6699 264.505 84.5018 262.981ZM80.6355 137.537C68.8789 177.594 72.3452 202.144 77.6288 226.954C78.0317 228.846 76.826 230.701 74.9356 231.098C73.0453 231.495 71.1863 230.283 70.7834 228.391C65.3482 202.869 61.7321 177.069 73.9192 135.545C74.4631 133.692 76.4076 132.635 78.2622 133.186C80.1169 133.736 81.1794 135.684 80.6355 137.537ZM99.874 252.085C86.2514 225.286 79.071 197.653 88.9092 152.564C89.3226 150.67 88.1289 148.814 86.243 148.419C84.3571 148.024 82.4932 149.239 82.0798 151.134C71.8649 197.949 79.356 227.222 93.6378 255.318C94.5106 257.035 96.6143 257.704 98.3363 256.811C100.058 255.918 100.747 253.803 99.874 252.085ZM105.875 140.046C90.8593 177.263 95.4507 207.983 100.786 222.204C101.466 224.018 100.551 226.032 98.7429 226.702C96.9343 227.373 94.9167 226.446 94.2363 224.632C88.3097 208.833 83.6873 176.298 99.3844 137.393C100.106 135.603 102.145 134.747 103.937 135.479C105.729 136.212 106.597 138.257 105.875 140.046ZM122.844 244.188C112.201 229.256 102.798 199.709 108.75 172.596C109.167 170.695 107.981 168.839 106.101 168.451C104.22 168.063 102.358 169.289 101.941 171.189C95.4988 200.536 105.553 232.071 117.156 248.348C118.27 249.911 120.447 250.247 122.018 249.099C123.589 247.95 123.959 245.751 122.844 244.188ZM127.647 160.486C116.226 176.682 114.863 194.086 119.314 209.489C119.854 211.358 118.791 213.29 116.94 213.805C115.09 214.32 113.152 213.223 112.612 211.354C107.623 194.086 109.186 174.445 121.932 156.369C123.039 154.799 125.216 154.448 126.794 155.585C128.372 156.721 128.754 158.916 127.647 160.486ZM138.647 233.223C132.399 225.948 126.255 210.229 129.045 194.83C129.393 192.912 128.142 191.102 126.252 190.789C124.361 190.475 122.547 191.776 122.199 193.694C118.989 211.409 125.896 229.216 133.353 237.898C134.601 239.352 136.798 239.483 138.26 238.192C139.722 236.901 139.895 234.676 138.647 233.223Z" fill="#DC143C"/>
<path d="M201.999 400.999L202.018 399.999L202.018 399.999L201.999 400.999ZM206 397.037L205 397.037V397.037H206ZM60.336 342.307L61.0335 341.59L61.0335 341.59L60.336 342.307ZM60.336 58.7307L59.6385 58.0141L60.336 58.7307ZM201.999 0.0380205L201.98 -0.961801L201.98 -0.961801L201.999 0.0380205ZM202.002 139.158L201.94 138.159L201.94 138.159L202.002 139.158ZM161.336 157.043L162.033 157.759L162.033 157.759L161.336 157.043ZM161.336 243.995L162.033 243.278L162.033 243.278L161.336 243.995ZM202.002 261.88L201.94 262.878L201.94 262.878L202.002 261.88ZM206 266.003L207 266.003V266.003H206ZM143.198 219.537L142.284 219.944L142.284 219.944L143.198 219.537ZM143.198 181.5L144.112 181.907L144.112 181.907L143.198 181.5ZM141.423 224.158L141.829 225.071L141.829 225.071L141.423 224.158ZM136.802 222.382L135.888 222.789L135.888 222.789L136.802 222.382ZM136.802 178.655L135.888 178.248L135.888 178.248L136.802 178.655ZM141.423 176.88L141.016 177.793L141.016 177.793L141.423 176.88ZM19.9927 145.034L19.0142 144.827L19.0142 144.827L19.9927 145.034ZM17.978 238.654L18.9659 238.499L18.9659 238.499L17.978 238.654ZM17.2892 140.879L17.0802 141.857L17.0802 141.857L17.2892 140.879ZM13.1436 143.57L12.1651 143.364L13.1436 143.57ZM11.0633 239.717L12.0512 239.562L12.0512 239.562L11.0633 239.717ZM15.063 242.645L15.215 243.633L15.215 243.633L15.063 242.645ZM47.9994 280.624L47.174 281.189L47.174 281.189L47.9994 280.624ZM43.2361 111.293L44.1636 111.667L44.1636 111.667L43.2361 111.293ZM47.0829 285.492L46.5173 284.667L46.5173 284.667L47.0829 285.492ZM42.2192 284.589L43.0445 284.024L43.0445 284.024L42.2192 284.589ZM36.7449 108.693L37.6725 109.067L37.6725 109.067L36.7449 108.693ZM41.2997 106.743L41.6715 105.815L41.6715 105.815L41.2997 106.743ZM39.0762 182.025L40.076 182.045L40.076 182.045L39.0762 182.025ZM60.8029 271.935L61.5722 271.296L61.5722 271.296L60.8029 271.935ZM35.6641 178.506L35.6644 177.506L35.6641 178.506ZM32.1149 182.023L31.1151 182.004L31.1151 182.004L32.1149 182.023ZM55.4336 276.52L54.6643 277.159L54.6643 277.159L55.4336 276.52ZM60.3346 276.897L59.6853 276.136L59.6852 276.136L60.3346 276.897ZM51.4617 209.874L52.4541 209.751L52.4541 209.751L51.4617 209.874ZM67.9409 121.082L67.0884 120.56L67.0884 120.56L67.9409 121.082ZM48.4318 213.744L48.3231 212.749L48.3231 212.749L48.4318 213.744ZM44.5383 210.631L45.5307 210.508L45.5307 210.508L44.5383 210.631ZM61.9873 117.325L62.8398 117.847L62.8398 117.847L61.9873 117.325ZM66.783 116.237L66.2493 117.083L66.2493 117.083L66.783 116.237ZM66.4087 152.556L65.4319 152.342L65.4319 152.342L66.4087 152.556ZM84.5018 262.981L85.2955 262.373L85.2955 262.373L84.5018 262.981ZM63.7529 148.412L63.9559 147.433L63.9558 147.433L63.7529 148.412ZM59.5913 151.143L58.6145 150.929L58.6145 150.929L59.5913 151.143ZM78.9474 267.314L79.7412 266.706L79.7412 266.706L78.9474 267.314ZM83.8396 267.908L83.2245 267.119L83.2245 267.119L83.8396 267.908ZM77.6288 226.954L76.6507 227.162L76.6507 227.162L77.6288 226.954ZM80.6355 137.537L81.595 137.819L81.595 137.819L80.6355 137.537ZM74.9356 231.098L74.7302 230.12L74.7302 230.12L74.9356 231.098ZM70.7834 228.391L71.7614 228.183L71.7614 228.183L70.7834 228.391ZM73.9192 135.545L74.8787 135.827L74.8787 135.827L73.9192 135.545ZM78.2622 133.186L77.9779 134.144L77.9779 134.144L78.2622 133.186ZM88.9092 152.564L89.8862 152.777L89.8862 152.777L88.9092 152.564ZM99.874 252.085L100.765 251.632L100.765 251.632L99.874 252.085ZM86.243 148.419L86.0381 149.397L86.0381 149.397L86.243 148.419ZM82.0798 151.134L81.1028 150.921L81.1028 150.921L82.0798 151.134ZM93.6378 255.318L92.7463 255.771L92.7463 255.771L93.6378 255.318ZM98.3363 256.811L98.7966 257.699L98.7966 257.699L98.3363 256.811ZM100.786 222.204L101.722 221.853L101.722 221.853L100.786 222.204ZM105.875 140.046L106.802 140.421L106.802 140.421L105.875 140.046ZM98.7429 226.702L99.0905 227.64L99.0905 227.64L98.7429 226.702ZM94.2363 224.632L93.3 224.983L93.3 224.983L94.2363 224.632ZM99.3844 137.393L98.457 137.018L98.457 137.018L99.3844 137.393ZM103.937 135.479L103.559 136.405L103.559 136.405L103.937 135.479ZM108.75 172.596L109.726 172.81L109.726 172.81L108.75 172.596ZM122.844 244.188L123.659 243.608L123.659 243.608L122.844 244.188ZM101.941 171.189L102.917 171.404L102.917 171.404L101.941 171.189ZM117.156 248.348L117.97 247.768L117.97 247.768L117.156 248.348ZM122.018 249.099L121.427 248.291L121.427 248.291L122.018 249.099ZM119.314 209.489L120.274 209.212L120.274 209.212L119.314 209.489ZM127.647 160.486L128.464 161.062L128.464 161.062L127.647 160.486ZM116.94 213.805L116.672 212.842L116.672 212.842L116.94 213.805ZM112.612 211.354L111.652 211.632L111.652 211.632L112.612 211.354ZM121.932 156.369L122.749 156.945L122.749 156.945L121.932 156.369ZM129.045 194.83L128.061 194.652L128.061 194.652L129.045 194.83ZM138.647 233.223L137.888 233.875L137.888 233.875L138.647 233.223ZM122.199 193.694L121.215 193.516L121.215 193.516L122.199 193.694ZM133.353 237.898L134.112 237.247L134.112 237.247L133.353 237.898ZM201.98 401.999C204.76 402.052 207 399.794 207 397.037H205C205 398.699 203.655 400.03 202.018 399.999L201.98 401.999ZM59.6385 343.023C97.5118 379.889 148.544 400.99 201.98 401.999L202.018 399.999C149.082 399 98.5371 378.096 61.0335 341.59L59.6385 343.023ZM-1 200.519C-1 253.973 20.8156 305.233 59.6385 343.023L61.0335 341.59C22.5914 304.171 1 253.425 1 200.519H-1ZM59.6385 58.0141C20.8156 95.804 -1 147.064 -1 200.519H1C1 147.612 22.5914 96.8665 61.0335 59.4473L59.6385 58.0141ZM201.98 -0.961801C148.544 0.0474394 97.5119 21.1486 59.6385 58.0141L61.0335 59.4473C98.5371 22.9417 149.082 2.03764 202.018 1.03784L201.98 -0.961801ZM207 4.00025C207 1.2435 204.761 -1.01431 201.98 -0.961801L202.018 1.03784C203.655 1.00692 205 2.33871 205 4.00025H207ZM207 135.034V4.00025H205V135.034H207ZM202.064 140.156C204.756 139.99 207 137.811 207 135.034H205C205 136.676 203.658 138.054 201.94 138.159L202.064 140.156ZM162.033 157.759C172.759 147.319 187.005 141.085 202.064 140.156L201.94 138.159C186.413 139.117 171.712 145.546 160.638 156.326L162.033 157.759ZM143.835 200.519C143.835 184.486 150.378 169.105 162.033 157.759L160.638 156.326C148.602 168.042 141.835 183.938 141.835 200.519H143.835ZM162.033 243.278C150.378 231.933 143.835 216.551 143.835 200.519H141.835C141.835 217.099 148.602 232.995 160.638 244.711L162.033 243.278ZM202.064 260.882C187.005 259.953 172.759 253.718 162.033 243.278L160.638 244.711C171.712 255.491 186.413 261.92 201.94 262.878L202.064 260.882ZM207 266.003C207 263.227 204.756 261.048 202.064 260.882L201.94 262.878C203.658 262.984 205 264.361 205 266.003H207ZM207 397.037L207 266.003L205 266.003L205 397.037L207 397.037ZM144.111 219.131C143.061 216.769 141.316 211.352 140.713 204.558C140.111 197.771 140.655 189.675 144.112 181.907L142.284 181.094C138.651 189.261 138.099 197.719 138.721 204.735C139.343 211.744 141.142 217.377 142.284 219.944L144.111 219.131ZM141.829 225.071C144.1 224.061 145.122 221.402 144.111 219.131L142.284 219.944C142.845 221.205 142.278 222.683 141.016 223.244L141.829 225.071ZM135.888 222.789C136.899 225.06 139.558 226.082 141.829 225.071L141.016 223.244C139.755 223.805 138.277 223.238 137.716 221.976L135.888 222.789ZM135.888 178.248C127.5 197.105 133.238 216.831 135.888 222.789L137.716 221.976C135.179 216.274 129.652 197.188 137.716 179.061L135.888 178.248ZM141.829 175.966C139.558 174.956 136.899 175.978 135.888 178.248L137.716 179.061C138.277 177.8 139.755 177.232 141.016 177.793L141.829 175.966ZM144.112 181.907C145.122 179.636 144.1 176.976 141.829 175.966L141.016 177.793C142.278 178.355 142.845 179.832 142.284 181.094L144.112 181.907ZM19.0142 144.827C11.4042 180.956 11.4018 203.163 16.99 238.809L18.9659 238.499C13.4116 203.07 13.416 181.108 20.9713 145.24L19.0142 144.827ZM17.0802 141.857C18.4335 142.146 19.2986 143.477 19.0142 144.827L20.9713 145.24C21.4833 142.809 19.9275 140.42 17.4982 139.901L17.0802 141.857ZM14.1222 143.776C14.4061 142.428 15.7291 141.568 17.0802 141.857L17.4982 139.901C15.0667 139.381 12.6776 140.931 12.1651 143.364L14.1222 143.776ZM12.0512 239.562C6.37806 203.375 6.37566 180.552 14.1222 143.776L12.1651 143.364C4.36388 180.4 4.3683 203.468 10.0754 239.872L12.0512 239.562ZM14.911 241.657C13.5474 241.866 12.2656 240.929 12.0512 239.562L10.0754 239.872C10.4601 242.326 12.7598 244.011 15.215 243.633L14.911 241.657ZM16.99 238.809C17.204 240.174 16.2724 241.447 14.911 241.657L15.215 243.633C17.6725 243.256 19.351 240.955 18.9659 238.499L16.99 238.809ZM48.8247 280.06C25.2954 245.665 16.9439 179.237 44.1636 111.667L42.3085 110.92C14.9019 178.953 23.1808 246.116 47.174 281.189L48.8247 280.06ZM47.6485 286.316C49.6977 284.911 50.2277 282.111 48.8247 280.06L47.174 281.189C47.9511 282.325 47.6604 283.883 46.5173 284.667L47.6485 286.316ZM41.3938 285.154C42.7973 287.205 45.5985 287.722 47.6485 286.316L46.5173 284.667C45.3749 285.45 43.821 285.159 43.0445 284.024L41.3938 285.154ZM35.8173 108.32C7.75409 177.983 15.7825 247.715 41.3938 285.154L43.0445 284.024C17.8974 247.265 9.79584 178.267 37.6725 109.067L35.8173 108.32ZM41.6715 105.815C39.3652 104.891 36.7457 106.015 35.8173 108.32L37.6725 109.067C38.1902 107.782 39.6491 107.16 40.9278 107.672L41.6715 105.815ZM44.1636 111.667C45.0926 109.361 43.9793 106.74 41.6715 105.815L40.9278 107.672C42.2051 108.183 42.8257 109.636 42.3085 110.92L44.1636 111.667ZM38.0764 182.006C37.0613 234.096 50.2608 260.804 60.0335 272.574L61.5722 271.296C52.1837 259.989 39.0676 233.792 40.076 182.045L38.0764 182.006ZM35.6638 179.506C37.0156 179.506 38.1035 180.611 38.0764 182.006L40.076 182.045C40.1245 179.552 38.1571 177.506 35.6644 177.506L35.6638 179.506ZM33.1147 182.043C33.1422 180.634 34.2964 179.505 35.6638 179.506L35.6644 177.506C33.1872 177.505 31.1634 179.526 31.1151 182.004L33.1147 182.043ZM56.203 275.881C45.5008 262.992 32.0824 235.021 33.1147 182.043L31.1151 182.004C30.0761 235.325 43.5777 263.807 54.6643 277.159L56.203 275.881ZM59.6852 276.136C58.6139 277.051 57.0602 276.914 56.203 275.881L54.6643 277.159C56.2552 279.075 59.09 279.275 60.984 277.657L59.6852 276.136ZM60.0335 272.574C60.898 273.615 60.7643 275.215 59.6853 276.136L60.984 277.657C62.8703 276.047 63.1559 273.204 61.5722 271.296L60.0335 272.574ZM52.4541 209.751C48.33 176.411 54.6184 144.723 68.7934 121.605L67.0884 120.56C52.6384 144.126 46.2992 176.285 50.4693 209.997L52.4541 209.751ZM48.5405 214.738C51.0165 214.467 52.7599 212.223 52.4541 209.751L50.4693 209.997C50.6405 211.381 49.6709 212.602 48.3231 212.749L48.5405 214.738ZM43.5458 210.754C43.8503 213.215 46.0759 215.007 48.5405 214.738L48.3231 212.749C46.964 212.898 45.7032 211.903 45.5307 210.508L43.5458 210.754ZM61.1348 116.802C45.7376 141.913 39.2119 175.717 43.5458 210.754L45.5307 210.508C41.2427 175.843 47.7176 142.51 62.8398 117.847L61.1348 116.802ZM67.3168 115.391C65.2108 114.062 62.4365 114.679 61.1348 116.802L62.8398 117.847C63.5472 116.694 65.0672 116.337 66.2493 117.083L67.3168 115.391ZM68.7934 121.605C70.0896 119.491 69.4145 116.715 67.3168 115.391L66.2493 117.083C67.4396 117.834 67.8014 119.397 67.0884 120.56L68.7934 121.605ZM65.4319 152.342C54.4849 202.321 64.8851 239.023 83.708 263.589L85.2955 262.373C66.8788 238.337 56.5467 202.255 67.3855 152.77L65.4319 152.342ZM63.5499 149.391C64.8773 149.666 65.7308 150.977 65.4319 152.342L67.3855 152.77C67.9182 150.338 66.3935 147.938 63.9559 147.433L63.5499 149.391ZM60.5681 151.356C60.8688 149.984 62.2135 149.114 63.5499 149.391L63.9558 147.433C61.5271 146.929 59.1453 148.505 58.6145 150.929L60.5681 151.356ZM79.7412 266.706C59.93 240.85 49.3431 202.605 60.5681 151.356L58.6145 150.929C47.2814 202.67 57.9362 241.536 78.1536 267.922L79.7412 266.706ZM83.2245 267.119C82.1191 267.982 80.5639 267.78 79.7412 266.706L78.1536 267.922C79.6671 269.898 82.4925 270.227 84.4547 268.696L83.2245 267.119ZM83.708 263.589C84.535 264.668 84.335 266.253 83.2245 267.119L84.4547 268.696C86.4118 267.169 86.8047 264.342 85.2955 262.373L83.708 263.589ZM78.6068 226.746C73.3449 202.037 69.9 177.666 81.595 137.819L79.676 137.256C67.8577 177.523 71.3456 202.251 76.6507 227.162L78.6068 226.746ZM75.1411 232.077C77.5744 231.566 79.1247 229.178 78.6068 226.746L76.6507 227.162C76.9387 228.514 76.0775 229.837 74.7302 230.12L75.1411 232.077ZM69.8053 228.599C70.3227 231.029 72.71 232.587 75.1411 232.077L74.7302 230.12C73.3807 230.403 72.0499 229.537 71.7614 228.183L69.8053 228.599ZM72.9597 135.264C60.711 176.997 64.3485 202.976 69.8053 228.599L71.7614 228.183C66.3478 202.762 62.7532 177.141 74.8787 135.827L72.9597 135.264ZM78.5466 132.227C76.1628 131.52 73.6599 132.878 72.9597 135.264L74.8787 135.827C75.2664 134.506 76.6524 133.751 77.9779 134.144L78.5466 132.227ZM81.595 137.819C82.2946 135.435 80.9283 132.933 78.5466 132.227L77.9779 134.144C79.3055 134.538 80.0643 135.933 79.676 137.256L81.595 137.819ZM87.9322 152.351C78.0407 197.684 85.2647 225.552 98.9825 252.539L100.765 251.632C87.2382 225.021 80.1014 197.622 89.8862 152.777L87.9322 152.351ZM86.0381 149.397C87.3742 149.677 88.2285 150.993 87.9322 152.351L89.8862 152.777C90.4168 150.346 88.8836 147.95 86.448 147.44L86.0381 149.397ZM83.0568 151.347C83.3545 149.983 84.6954 149.116 86.0381 149.397L86.448 147.44C84.0189 146.931 81.632 148.496 81.1028 150.921L83.0568 151.347ZM94.5292 254.865C80.3428 226.956 72.8952 197.918 83.0568 151.347L81.1028 150.921C70.8346 197.98 78.3692 227.488 92.7463 255.771L94.5292 254.865ZM97.8761 255.923C96.6412 256.563 95.1474 256.081 94.5292 254.865L92.7463 255.771C93.8739 257.989 96.5873 258.844 98.7966 257.699L97.8761 255.923ZM98.9825 252.539C99.6036 253.76 99.1164 255.28 97.8761 255.923L98.7966 257.699C101 256.556 101.89 253.845 100.765 251.632L98.9825 252.539ZM101.722 221.853C96.4709 207.855 91.8845 177.394 106.802 140.421L104.948 139.672C89.8341 177.131 94.4305 208.11 99.8492 222.555L101.722 221.853ZM99.0905 227.64C101.422 226.775 102.595 224.181 101.722 221.853L99.8492 222.555C100.337 223.854 99.6807 225.288 98.3953 225.764L99.0905 227.64ZM93.3 224.983C94.1724 227.309 96.7617 228.503 99.0905 227.64L98.3953 225.764C97.107 226.242 95.6609 225.583 95.1725 224.281L93.3 224.983ZM98.457 137.018C82.6621 176.166 87.2895 208.961 93.3 224.983L95.1725 224.281C89.3299 208.706 84.7125 176.429 100.312 137.767L98.457 137.018ZM104.315 134.554C102.013 133.613 99.3876 134.712 98.457 137.018L100.312 137.767C100.825 136.494 102.276 135.881 103.559 136.405L104.315 134.554ZM106.802 140.421C107.732 138.118 106.614 135.494 104.315 134.554L103.559 136.405C104.844 136.931 105.462 138.396 104.948 139.672L106.802 140.421ZM107.773 172.381C101.753 199.807 111.246 229.639 122.03 244.768L123.659 243.608C113.156 228.873 103.843 199.61 109.726 172.81L107.773 172.381ZM105.898 169.43C107.22 169.703 108.073 171.012 107.773 172.381L109.726 172.81C110.26 170.378 108.741 167.975 106.303 167.472L105.898 169.43ZM102.917 171.404C103.22 170.025 104.566 169.155 105.898 169.43L106.303 167.472C103.874 166.97 101.496 168.552 100.964 170.975L102.917 171.404ZM117.97 247.768C106.508 231.687 96.5442 200.437 102.917 171.404L100.964 170.975C94.4533 200.634 104.598 232.454 116.341 248.928L117.97 247.768ZM121.427 248.291C120.295 249.119 118.753 248.867 117.97 247.768L116.341 248.928C117.786 250.956 120.598 251.376 122.608 249.906L121.427 248.291ZM122.03 244.768C122.819 245.876 122.566 247.458 121.427 248.291L122.608 249.906C124.611 248.441 125.098 245.627 123.659 243.608L122.03 244.768ZM120.274 209.212C115.899 194.069 117.236 176.984 128.464 161.062L126.829 159.909C115.216 176.379 113.827 194.103 118.353 209.767L120.274 209.212ZM117.209 214.769C119.606 214.101 120.965 211.603 120.274 209.212L118.353 209.767C118.742 211.113 117.976 212.479 116.672 212.842L117.209 214.769ZM111.652 211.632C112.34 214.016 114.819 215.434 117.209 214.769L116.672 212.842C115.361 213.207 113.964 212.43 113.573 211.077L111.652 211.632ZM121.115 155.793C108.175 174.142 106.587 194.103 111.652 211.632L113.573 211.077C108.659 194.069 110.196 174.747 122.749 156.945L121.115 155.793ZM127.378 154.773C125.359 153.318 122.549 153.759 121.115 155.793L122.749 156.945C123.529 155.84 125.073 155.577 126.209 156.396L127.378 154.773ZM128.464 161.062C129.894 159.034 129.392 156.224 127.378 154.773L126.209 156.396C127.352 157.219 127.614 158.797 126.829 159.909L128.464 161.062ZM128.061 194.652C125.212 210.373 131.461 226.392 137.888 233.875L139.406 232.571C133.336 225.505 127.297 210.086 130.029 195.008L128.061 194.652ZM126.088 191.775C127.412 191.995 128.312 193.266 128.061 194.652L130.029 195.008C130.473 192.557 128.873 190.21 126.415 189.802L126.088 191.775ZM123.183 193.872C123.436 192.476 124.752 191.554 126.088 191.775L126.415 189.802C123.97 189.396 121.658 191.076 121.215 193.516L123.183 193.872ZM134.112 237.247C126.833 228.772 120.032 211.265 123.183 193.872L121.215 193.516C117.947 211.553 124.959 229.66 132.594 238.55L134.112 237.247ZM137.598 237.442C136.541 238.376 134.985 238.264 134.112 237.247L132.594 238.55C134.217 240.439 137.055 240.59 138.922 238.941L137.598 237.442ZM137.888 233.875C138.769 234.9 138.662 236.502 137.598 237.442L138.922 238.941C140.781 237.299 141.021 234.452 139.406 232.571L137.888 233.875Z" fill="#DC143C" mask="url(#path-17-inside-1_0_1)"/>
<path d="M211.5 197.5C211.5 200.221 209.079 202.5 206 202.5C202.921 202.5 200.5 200.221 200.5 197.5C200.5 194.779 202.921 192.5 206 192.5C209.079 192.5 211.5 194.779 211.5 197.5Z" fill="#DC143C" stroke="#DC143C"/>
</svg>
