<svg width="404" height="401" viewBox="0 0 404 401" fill="none" xmlns="http://www.w3.org/2000/svg">
<path d="M388 190L388 205" stroke="white" stroke-width="7" stroke-linecap="round"/>
<path d="M400 194L400 199" stroke="white" stroke-width="7" stroke-linecap="round"/>
<path d="M376 215L376 183" stroke="white" stroke-width="7" stroke-linecap="round"/>
<path d="M364 164L364 231" stroke="white" stroke-width="7" stroke-linecap="round"/>
<path d="M352 80L352 303" stroke="white" stroke-width="7" stroke-linecap="round"/>
<path d="M340 180L340 210" stroke="white" stroke-width="7" stroke-linecap="round"/>
<path d="M328 158L328 233" stroke="white" stroke-width="7" stroke-linecap="round"/>
<path d="M316 100L316 295" stroke="white" stroke-width="7" stroke-linecap="round"/>
<path d="M304 114L304 283" stroke="white" stroke-width="7" stroke-linecap="round"/>
<path d="M292 32L292 350" stroke="white" stroke-width="7" stroke-linecap="round"/>
<path d="M280 174L280 222" stroke="white" stroke-width="7" stroke-linecap="round"/>
<path fill-rule="evenodd" clip-rule="evenodd" d="M235.525 65.2174C235.525 63.2844 233.958 61.7174 232.025 61.7174C230.092 61.7174 228.525 63.2844 228.525 65.2174V143.231C230.933 144.129 233.27 145.166 235.525 146.333V65.2174ZM235.525 254.705C233.27 255.871 230.933 256.909 228.525 257.806V324.139C228.525 326.072 230.092 327.639 232.025 327.639C233.958 327.639 235.525 326.072 235.525 324.139V254.705Z" fill="white"/>
<path fill-rule="evenodd" clip-rule="evenodd" d="M264.525 223.261C267.412 216.229 269 208.554 269 200.519C269 192.483 267.412 184.809 264.525 177.776L264.525 147.956C264.525 146.023 266.092 144.456 268.025 144.456C269.958 144.456 271.525 146.023 271.525 147.956L271.525 249.188C271.525 251.121 269.958 252.688 268.025 252.688C266.092 252.688 264.525 251.121 264.525 249.188L264.525 223.261Z" fill="white"/>
<path fill-rule="evenodd" clip-rule="evenodd" d="M259.525 116.807C259.525 114.874 257.958 113.307 256.025 113.307C254.092 113.307 252.525 114.874 252.525 116.807L252.525 159.17C255.13 161.945 257.475 164.954 259.525 168.16L259.525 116.807ZM259.525 232.877C257.475 236.084 255.13 239.092 252.525 241.867L252.525 276.443C252.525 278.376 254.092 279.943 256.025 279.943C257.958 279.943 259.525 278.376 259.525 276.443L259.525 232.877Z" fill="white"/>
<path fill-rule="evenodd" clip-rule="evenodd" d="M247.525 57.4303C247.525 55.4973 245.958 53.9303 244.025 53.9303C242.092 53.9303 240.525 55.4973 240.525 57.4303L240.525 149.215C242.984 150.786 245.323 152.52 247.525 154.401L247.525 57.4303ZM247.525 246.637C245.323 248.518 242.984 250.251 240.525 251.822L240.525 339.714C240.525 341.647 242.092 343.214 244.025 343.214C245.958 343.213 247.525 341.646 247.525 339.713L247.525 246.637Z" fill="white"/>
<path fill-rule="evenodd" clip-rule="evenodd" d="M223.525 4.86742C223.526 2.93443 221.959 1.36732 220.026 1.3672C218.093 1.36708 216.526 2.93399 216.525 4.86698L216.517 140.046C218.898 140.435 221.234 140.955 223.517 141.597L223.525 4.86742ZM223.509 259.443C221.226 260.084 218.89 260.604 216.509 260.993L216.5 397.143C216.5 399.076 218.067 400.643 220 400.643C221.933 400.644 223.5 399.077 223.5 397.144L223.509 259.443Z" fill="white"/>
<path fill-rule="evenodd" clip-rule="evenodd" d="M206 397.037C206 399.246 204.208 401.041 201.999 400.999C148.813 399.995 98.0245 378.992 60.336 342.307C21.7035 304.702 0 253.699 0 200.519C0 147.338 21.7035 96.3352 60.336 58.7307C98.0245 22.0451 148.813 1.04254 201.999 0.0380205C204.208 -0.00369574 206 1.79111 206 4.00025V135.034C206 137.244 204.207 139.022 202.002 139.158C186.709 140.101 172.235 146.433 161.336 157.043C149.49 168.573 142.835 184.212 142.835 200.519C142.835 216.825 149.49 232.464 161.336 243.995C172.235 254.604 186.709 260.936 202.002 261.88C204.207 262.016 206 263.794 206 266.003L206 397.037ZM143.198 181.5C136.109 197.436 141.005 214.609 143.198 219.537C143.984 221.303 143.189 223.372 141.423 224.158C139.656 224.943 137.588 224.149 136.802 222.382C134.209 216.552 128.576 197.146 136.802 178.655C137.588 176.889 139.656 176.094 141.423 176.88C143.189 177.665 143.984 179.734 143.198 181.5ZM17.978 238.654C12.4067 203.116 12.4101 181.032 19.9927 145.034C20.3909 143.143 19.1805 141.283 17.2892 140.879C15.3979 140.474 13.5418 141.679 13.1436 143.57C5.36977 180.476 5.37318 203.421 11.0633 239.717C11.3628 241.628 13.1536 242.939 15.063 242.645C16.9725 242.351 18.2775 240.564 17.978 238.654ZM43.2361 111.293C15.9229 179.095 24.2381 245.891 47.9994 280.624C49.0894 282.218 48.679 284.397 47.0829 285.492C45.4867 286.586 43.3092 286.182 42.2192 284.589C16.8399 247.49 8.77497 178.125 36.7449 108.693C37.4679 106.898 39.5072 106.025 41.2997 106.743C43.0922 107.461 43.9591 109.499 43.2361 111.293ZM60.8029 271.935C51.2223 260.397 38.0645 233.944 39.0762 182.025C39.114 180.082 37.5864 178.506 35.6641 178.506C33.7418 178.505 32.1528 180.08 32.1149 182.023C31.0792 235.173 44.5392 263.399 55.4336 276.52C56.6577 277.994 58.852 278.163 60.3346 276.897C61.8173 275.631 62.0269 273.409 60.8029 271.935ZM67.9409 121.082C53.6284 144.425 47.3146 176.348 51.4617 209.874C51.7002 211.802 50.3437 213.534 48.4318 213.744C46.52 213.953 44.7768 212.559 44.5383 210.631C40.2273 175.78 46.7276 142.212 61.9873 117.325C62.9919 115.686 65.139 115.199 66.783 116.237C68.4271 117.275 68.9455 119.444 67.9409 121.082ZM84.5018 262.981C65.8819 238.68 55.5158 202.288 66.4087 152.556C66.8245 150.657 65.6354 148.802 63.7529 148.412C61.8703 148.022 60.0071 149.244 59.5913 151.142C48.3122 202.638 58.9331 241.193 78.9474 267.314C80.1155 268.839 82.3058 269.104 83.8396 267.908C85.3734 266.711 85.6699 264.505 84.5018 262.981ZM80.6355 137.537C68.8789 177.594 72.3452 202.144 77.6288 226.954C78.0317 228.846 76.826 230.701 74.9356 231.098C73.0453 231.495 71.1863 230.283 70.7834 228.391C65.3482 202.869 61.7321 177.069 73.9192 135.545C74.4631 133.692 76.4076 132.635 78.2622 133.186C80.1169 133.736 81.1794 135.684 80.6355 137.537ZM99.874 252.085C86.2514 225.286 79.071 197.653 88.9092 152.564C89.3226 150.67 88.1289 148.814 86.243 148.419C84.3571 148.024 82.4932 149.239 82.0798 151.134C71.8649 197.949 79.356 227.222 93.6378 255.318C94.5106 257.035 96.6143 257.704 98.3363 256.811C100.058 255.918 100.747 253.803 99.874 252.085ZM105.875 140.046C90.8593 177.263 95.4507 207.983 100.786 222.204C101.466 224.018 100.551 226.032 98.7429 226.702C96.9343 227.373 94.9167 226.446 94.2363 224.632C88.3097 208.833 83.6873 176.298 99.3844 137.393C100.106 135.603 102.145 134.747 103.937 135.479C105.729 136.212 106.597 138.257 105.875 140.046ZM122.844 244.188C112.201 229.256 102.798 199.709 108.75 172.596C109.167 170.695 107.981 168.839 106.101 168.451C104.22 168.063 102.358 169.289 101.941 171.189C95.4988 200.536 105.553 232.071 117.156 248.348C118.27 249.911 120.447 250.247 122.018 249.099C123.589 247.95 123.959 245.751 122.844 244.188ZM127.647 160.486C116.226 176.682 114.863 194.086 119.314 209.489C119.854 211.358 118.791 213.29 116.94 213.805C115.09 214.32 113.152 213.223 112.612 211.354C107.623 194.086 109.186 174.445 121.932 156.369C123.039 154.799 125.216 154.448 126.794 155.585C128.372 156.721 128.754 158.916 127.647 160.486ZM138.647 233.223C132.399 225.948 126.255 210.229 129.045 194.83C129.393 192.912 128.142 191.102 126.252 190.789C124.361 190.475 122.547 191.776 122.199 193.694C118.989 211.409 125.896 229.216 133.353 237.898C134.601 239.352 136.798 239.483 138.26 238.192C139.722 236.901 139.895 234.676 138.647 233.223Z" fill="white"/>
<ellipse cx="206" cy="197.5" rx="6" ry="5.5" fill="white"/>
</svg>
