<svg width="262" height="349" viewBox="0 0 262 349" fill="none" xmlns="http://www.w3.org/2000/svg">
<rect x="71.8336" y="0.965148" width="194" height="312" rx="13.5" transform="rotate(12 71.8336 0.965148)" fill="#F4FBAA" stroke="#BCB255" stroke-width="5"/>
<rect x="48.2456" y="10.8236" width="194" height="312" rx="13.5" transform="rotate(8 48.2456 10.8236)" fill="#F4FBAA" stroke="#BCB255" stroke-width="5"/>
<rect x="24.4323" y="21.6683" width="194" height="312" rx="13.5" transform="rotate(4 24.4323 21.6683)" fill="#F4FBAA" stroke="#BCB255" stroke-width="5"/>
<path d="M16 34.5H183C190.456 34.5 196.5 40.5442 196.5 48V333C196.5 340.456 190.456 346.5 183 346.5H16C8.54416 346.5 2.5 340.456 2.5 333V48C2.5 40.5442 8.54416 34.5 16 34.5Z" fill="#F4FBAA" stroke="#BCB255" stroke-width="5"/>
<g clip-path="url(#clip0_0_1)">
<path d="M162.653 189.86V195.06" stroke="#BCB255" stroke-width="2.5" stroke-linecap="round"/>
<path d="M166.663 191.247V192.98" stroke="#BCB255" stroke-width="2.5" stroke-linecap="round"/>
<path d="M158.644 198.526V187.434" stroke="#BCB255" stroke-width="2.5" stroke-linecap="round"/>
<path d="M154.634 180.848V204.072" stroke="#BCB255" stroke-width="2.5" stroke-linecap="round"/>
<path d="M150.624 151.731V229.03" stroke="#BCB255" stroke-width="2.5" stroke-linecap="round"/>
<path d="M146.614 186.394V196.793" stroke="#BCB255" stroke-width="2.5" stroke-linecap="round"/>
<path d="M142.604 178.768V204.766" stroke="#BCB255" stroke-width="2.5" stroke-linecap="round"/>
<path d="M138.594 158.663V226.257" stroke="#BCB255" stroke-width="2.5" stroke-linecap="round"/>
<path d="M134.584 163.516V222.097" stroke="#BCB255" stroke-width="2.5" stroke-linecap="round"/>
<path d="M130.574 135.092V245.322" stroke="#BCB255" stroke-width="2.5" stroke-linecap="round"/>
<path d="M126.564 184.314V200.953" stroke="#BCB255" stroke-width="2.5" stroke-linecap="round"/>
<path fill-rule="evenodd" clip-rule="evenodd" d="M111.703 146.607C111.703 145.936 111.179 145.393 110.533 145.393C109.887 145.393 109.364 145.936 109.364 146.607V173.649C110.168 173.96 110.949 174.319 111.703 174.724V146.607ZM111.703 212.289C110.949 212.693 110.168 213.053 109.364 213.364V236.357C109.364 237.027 109.887 237.571 110.533 237.571C111.179 237.571 111.703 237.027 111.703 236.357V212.289Z" fill="#BCB255"/>
<path fill-rule="evenodd" clip-rule="evenodd" d="M121.393 201.39C122.358 198.952 122.889 196.292 122.889 193.507C122.889 190.721 122.358 188.061 121.393 185.623V175.286C121.393 174.616 121.917 174.073 122.563 174.073C123.209 174.073 123.732 174.616 123.732 175.286V210.377C123.732 211.047 123.209 211.59 122.563 211.59C121.917 211.59 121.393 211.047 121.393 210.377V201.39Z" fill="#BCB255"/>
<path fill-rule="evenodd" clip-rule="evenodd" d="M119.722 164.489C119.722 163.819 119.199 163.276 118.553 163.276C117.907 163.276 117.383 163.819 117.383 164.489V179.174C118.254 180.136 119.037 181.179 119.722 182.29V164.489ZM119.722 204.723C119.037 205.835 118.254 206.877 117.383 207.839V219.824C117.383 220.494 117.907 221.038 118.553 221.038C119.199 221.038 119.722 220.494 119.722 219.824V204.723Z" fill="#BCB255"/>
<path fill-rule="evenodd" clip-rule="evenodd" d="M115.713 143.907C115.713 143.237 115.189 142.694 114.543 142.694C113.897 142.694 113.373 143.237 113.373 143.907V175.723C114.195 176.267 114.977 176.869 115.713 177.521V143.907ZM115.713 209.493C114.977 210.144 114.195 210.745 113.373 211.29V241.756C113.373 242.426 113.897 242.969 114.543 242.969C115.189 242.969 115.713 242.426 115.713 241.756V209.493Z" fill="#BCB255"/>
<path fill-rule="evenodd" clip-rule="evenodd" d="M107.693 125.687C107.693 125.017 107.169 124.474 106.524 124.474C105.878 124.474 105.354 125.017 105.354 125.687L105.351 172.545C106.147 172.679 106.927 172.86 107.69 173.082L107.693 125.687ZM107.687 213.932C106.925 214.154 106.144 214.334 105.348 214.469L105.345 261.663C105.345 262.333 105.869 262.876 106.515 262.877C107.161 262.877 107.684 262.333 107.684 261.663L107.687 213.932Z" fill="#BCB255"/>
<path fill-rule="evenodd" clip-rule="evenodd" d="M101.837 261.626C101.837 262.392 101.238 263.014 100.5 263C82.7271 262.652 65.7557 255.371 53.1618 242.655C40.2524 229.62 33 211.94 33 193.506C33 175.072 40.2524 157.393 53.1618 144.358C65.7557 131.641 82.7271 124.361 100.5 124.013C101.238 123.999 101.837 124.621 101.837 125.387V170.807C101.837 171.573 101.237 172.19 100.501 172.237C95.3904 172.564 90.5538 174.758 86.9118 178.436C82.9533 182.433 80.7295 187.854 80.7295 193.506C80.7295 199.159 82.9533 204.58 86.9118 208.577C90.5538 212.254 95.3904 214.449 100.501 214.776C101.237 214.823 101.837 215.44 101.837 216.205V261.626ZM80.8508 186.914C78.482 192.438 80.118 198.391 80.8508 200.099C81.1135 200.711 80.8478 201.428 80.2577 201.701C79.6672 201.973 78.9762 201.697 78.7135 201.085C77.8471 199.064 75.9648 192.337 78.7135 185.928C78.9762 185.316 79.6672 185.04 80.2577 185.312C80.8478 185.585 81.1135 186.302 80.8508 186.914ZM39.0075 206.725C37.1458 194.407 37.1469 186.752 39.6807 174.274C39.8138 173.618 39.4093 172.973 38.7773 172.833C38.1453 172.693 37.5251 173.111 37.392 173.766C34.7944 186.559 34.7955 194.512 36.6969 207.094C36.797 207.756 37.3954 208.211 38.0334 208.109C38.6715 208.007 39.1076 207.387 39.0075 206.725ZM47.4477 162.578C38.3208 186.08 41.0994 209.234 49.0394 221.274C49.4036 221.826 49.2665 222.581 48.7331 222.961C48.1998 223.34 47.4721 223.2 47.1079 222.648C38.6272 209.788 35.9322 185.744 45.2786 161.677C45.5202 161.054 46.2017 160.752 46.8006 161.001C47.3996 161.249 47.6893 161.956 47.4477 162.578ZM53.3178 218.262C50.1164 214.262 45.7196 205.093 46.0576 187.096C46.0703 186.422 45.5598 185.876 44.9175 185.876C44.2751 185.876 43.7441 186.422 43.7315 187.095C43.3854 205.519 47.8832 215.303 51.5236 219.851C51.9326 220.362 52.6659 220.421 53.1613 219.982C53.6568 219.543 53.7268 218.773 53.3178 218.262ZM55.703 165.971C50.9204 174.062 48.8106 185.128 50.1964 196.749C50.2761 197.418 49.8228 198.018 49.1839 198.091C48.5451 198.163 47.9625 197.68 47.8828 197.012C46.4423 184.931 48.6144 173.295 53.7136 164.669C54.0493 164.101 54.7667 163.932 55.3161 164.292C55.8655 164.651 56.0387 165.403 55.703 165.971ZM61.237 215.158C55.015 206.734 51.5511 194.12 55.191 176.881C55.33 176.223 54.9326 175.58 54.3036 175.444C53.6745 175.309 53.0519 175.733 52.9129 176.391C49.1439 194.241 52.693 207.605 59.3809 216.66C59.7713 217.188 60.5032 217.28 61.0157 216.866C61.5282 216.451 61.6273 215.686 61.237 215.158ZM59.945 171.675C56.0165 185.56 57.1748 194.07 58.9403 202.67C59.075 203.326 58.6721 203.969 58.0404 204.106C57.4087 204.244 56.7875 203.824 56.6529 203.168C54.8367 194.321 53.6283 185.378 57.7007 170.984C57.8825 170.342 58.5322 169.976 59.152 170.167C59.7717 170.357 60.1268 171.033 59.945 171.675ZM66.3737 211.381C61.8216 202.092 59.4222 192.513 62.7098 176.884C62.8479 176.227 62.449 175.584 61.8188 175.447C61.1886 175.31 60.5658 175.731 60.4277 176.388C57.0143 192.616 59.5175 202.763 64.2899 212.502C64.5815 213.097 65.2845 213.329 65.8599 213.019C66.4352 212.71 66.6655 211.977 66.3737 211.381ZM68.379 172.545C63.3614 185.445 64.8957 196.094 66.6785 201.023C66.9057 201.652 66.6 202.35 65.9958 202.582C65.3914 202.815 64.7172 202.494 64.4899 201.865C62.5094 196.388 60.9648 185.111 66.2101 171.625C66.4513 171.004 67.1326 170.708 67.7314 170.961C68.3302 171.216 68.6203 171.924 68.379 172.545ZM74.0494 208.644C70.4929 203.468 67.3508 193.226 69.3397 183.827C69.4791 183.168 69.0828 182.525 68.4545 182.391C67.826 182.256 67.2038 182.681 67.0644 183.34C64.9117 193.512 68.2714 204.443 72.1487 210.086C72.5209 210.627 73.2484 210.744 73.7733 210.346C74.2983 209.948 74.4219 209.185 74.0494 208.644ZM75.6543 179.63C71.8379 185.244 71.3824 191.277 72.8698 196.616C73.0502 197.264 72.695 197.933 72.0765 198.112C71.4583 198.29 70.8107 197.91 70.6303 197.262C68.9631 191.277 69.4854 184.468 73.7446 178.203C74.1145 177.658 74.842 177.537 75.3693 177.931C75.8966 178.325 76.0242 179.085 75.6543 179.63ZM79.3301 204.843C77.2422 202.321 75.1892 196.872 76.1215 191.534C76.2378 190.87 75.8197 190.242 75.1882 190.134C74.5563 190.025 73.9501 190.476 73.8338 191.141C72.7612 197.281 75.0692 203.454 77.561 206.463C77.9781 206.967 78.7122 207.013 79.2007 206.565C79.6893 206.118 79.7471 205.346 79.3301 204.843Z" fill="#BCB255"/>
<mask id="mask0_0_1" style="mask-type:luminance" maskUnits="userSpaceOnUse" x="33" y="124" width="69" height="139">
<path fill-rule="evenodd" clip-rule="evenodd" d="M101.837 261.626C101.837 262.392 101.238 263.014 100.5 263C82.7271 262.652 65.7557 255.371 53.1618 242.655C40.2524 229.62 33 211.94 33 193.506C33 175.072 40.2524 157.393 53.1618 144.358C65.7557 131.641 82.7271 124.361 100.5 124.013C101.238 123.999 101.837 124.621 101.837 125.387V170.807C101.837 171.573 101.237 172.19 100.501 172.237C95.3904 172.564 90.5538 174.758 86.9118 178.436C82.9533 182.433 80.7295 187.854 80.7295 193.506C80.7295 199.159 82.9533 204.58 86.9118 208.577C90.5538 212.254 95.3904 214.449 100.501 214.776C101.237 214.823 101.837 215.44 101.837 216.205V261.626ZM80.8508 186.914C78.482 192.438 80.118 198.391 80.8508 200.099C81.1135 200.711 80.8478 201.428 80.2577 201.701C79.6672 201.973 78.9762 201.697 78.7135 201.085C77.8471 199.064 75.9648 192.337 78.7135 185.928C78.9762 185.316 79.6672 185.04 80.2577 185.312C80.8478 185.585 81.1135 186.302 80.8508 186.914ZM39.0075 206.725C37.1458 194.407 37.1469 186.752 39.6807 174.274C39.8138 173.618 39.4093 172.973 38.7773 172.833C38.1453 172.693 37.5251 173.111 37.392 173.766C34.7944 186.559 34.7955 194.512 36.6969 207.094C36.797 207.756 37.3954 208.211 38.0334 208.109C38.6715 208.007 39.1076 207.387 39.0075 206.725ZM47.4477 162.578C38.3208 186.08 41.0994 209.234 49.0394 221.274C49.4036 221.826 49.2665 222.581 48.7331 222.961C48.1998 223.34 47.4721 223.2 47.1079 222.648C38.6272 209.788 35.9322 185.744 45.2786 161.677C45.5202 161.054 46.2017 160.752 46.8006 161.001C47.3996 161.249 47.6893 161.956 47.4477 162.578ZM53.3178 218.262C50.1164 214.262 45.7196 205.093 46.0576 187.096C46.0703 186.422 45.5598 185.876 44.9175 185.876C44.2751 185.876 43.7441 186.422 43.7315 187.095C43.3854 205.519 47.8832 215.303 51.5236 219.851C51.9326 220.362 52.6659 220.421 53.1613 219.982C53.6568 219.543 53.7268 218.773 53.3178 218.262ZM55.703 165.971C50.9204 174.062 48.8106 185.128 50.1964 196.749C50.2761 197.418 49.8228 198.018 49.1839 198.091C48.5451 198.163 47.9625 197.68 47.8828 197.012C46.4423 184.931 48.6144 173.295 53.7136 164.669C54.0493 164.101 54.7667 163.932 55.3161 164.292C55.8655 164.651 56.0387 165.403 55.703 165.971ZM61.237 215.158C55.015 206.734 51.5511 194.12 55.191 176.881C55.33 176.223 54.9326 175.58 54.3036 175.444C53.6745 175.309 53.0519 175.733 52.9129 176.391C49.1439 194.241 52.693 207.605 59.3809 216.66C59.7713 217.188 60.5032 217.28 61.0157 216.866C61.5282 216.451 61.6273 215.686 61.237 215.158ZM59.945 171.675C56.0165 185.56 57.1748 194.07 58.9403 202.67C59.075 203.326 58.6721 203.969 58.0404 204.106C57.4087 204.244 56.7875 203.824 56.6529 203.168C54.8367 194.321 53.6283 185.378 57.7007 170.984C57.8825 170.342 58.5322 169.976 59.152 170.167C59.7717 170.357 60.1268 171.033 59.945 171.675ZM66.3737 211.381C61.8216 202.092 59.4222 192.513 62.7098 176.884C62.8479 176.227 62.449 175.584 61.8188 175.447C61.1886 175.31 60.5658 175.731 60.4277 176.388C57.0143 192.616 59.5175 202.763 64.2899 212.502C64.5815 213.097 65.2845 213.329 65.8599 213.019C66.4352 212.71 66.6655 211.977 66.3737 211.381ZM68.379 172.545C63.3614 185.445 64.8957 196.094 66.6785 201.023C66.9057 201.652 66.6 202.35 65.9958 202.582C65.3914 202.815 64.7172 202.494 64.4899 201.865C62.5094 196.388 60.9648 185.111 66.2101 171.625C66.4513 171.004 67.1326 170.708 67.7314 170.961C68.3302 171.216 68.6203 171.924 68.379 172.545ZM74.0494 208.644C70.4929 203.468 67.3508 193.226 69.3397 183.827C69.4791 183.168 69.0828 182.525 68.4545 182.391C67.826 182.256 67.2038 182.681 67.0644 183.34C64.9117 193.512 68.2714 204.443 72.1487 210.086C72.5209 210.627 73.2484 210.744 73.7733 210.346C74.2983 209.948 74.4219 209.185 74.0494 208.644ZM75.6543 179.63C71.8379 185.244 71.3824 191.277 72.8698 196.616C73.0502 197.264 72.695 197.933 72.0765 198.112C71.4583 198.29 70.8107 197.91 70.6303 197.262C68.9631 191.277 69.4854 184.468 73.7446 178.203C74.1145 177.658 74.842 177.537 75.3693 177.931C75.8966 178.325 76.0242 179.085 75.6543 179.63ZM79.3301 204.843C77.2422 202.321 75.1892 196.872 76.1215 191.534C76.2378 190.87 75.8197 190.242 75.1882 190.134C74.5563 190.025 73.9501 190.476 73.8338 191.141C72.7612 197.281 75.0692 203.454 77.561 206.463C77.9781 206.967 78.7122 207.013 79.2007 206.565C79.6893 206.118 79.7471 205.346 79.3301 204.843Z" fill="white"/>
</mask>
<g mask="url(#mask0_0_1)">
<path d="M100.493 263.346C101.422 263.365 102.171 262.582 102.171 261.626H101.502C101.502 262.202 101.053 262.664 100.506 262.653L100.493 263.346ZM52.9287 242.903C65.5844 255.682 82.6372 262.997 100.493 263.346L100.506 262.653C82.817 262.307 65.927 255.061 53.3949 242.407L52.9287 242.903ZM32.6658 193.507C32.6658 212.036 39.9557 229.804 52.9287 242.903L53.3949 242.407C40.5491 229.436 33.3342 211.846 33.3342 193.507H32.6658ZM52.9287 144.11C39.9557 157.209 32.6658 174.977 32.6658 193.507H33.3342C33.3342 175.167 40.5491 157.577 53.3949 144.606L52.9287 144.11ZM100.493 123.667C82.6372 124.016 65.5844 131.331 52.9287 144.11L53.3949 144.606C65.927 131.952 82.817 124.706 100.506 124.36L100.493 123.667ZM102.171 125.387C102.171 124.431 101.423 123.648 100.493 123.667L100.506 124.36C101.053 124.349 101.502 124.811 101.502 125.387H102.171ZM102.171 170.807V125.387H101.502V170.807H102.171ZM100.521 172.583C101.421 172.525 102.171 171.77 102.171 170.807H101.502C101.502 171.376 101.054 171.854 100.48 171.891L100.521 172.583ZM87.1447 178.685C90.7289 175.066 95.4893 172.905 100.521 172.583L100.48 171.891C95.2915 172.223 90.379 174.451 86.6785 178.188L87.1447 178.685ZM81.0637 193.507C81.0637 187.949 83.2501 182.617 87.1447 178.685L86.6785 178.188C82.6566 182.249 80.3954 187.759 80.3954 193.507H81.0637ZM87.1447 208.328C83.2501 204.396 81.0637 199.064 81.0637 193.507H80.3954C80.3954 199.254 82.6566 204.764 86.6785 208.825L87.1447 208.328ZM100.521 214.43C95.4893 214.108 90.7289 211.947 87.1447 208.328L86.6785 208.825C90.379 212.562 95.2915 214.79 100.48 215.122L100.521 214.43ZM102.171 216.206C102.171 215.243 101.421 214.488 100.521 214.43L100.48 215.122C101.054 215.159 101.502 215.636 101.502 216.206H102.171ZM102.171 261.626V216.206H101.502V261.626H102.171ZM81.1559 199.958C80.805 199.139 80.2219 197.262 80.0204 194.907C79.8193 192.554 80.0011 189.748 81.1562 187.055L80.5454 186.773C79.3314 189.604 79.1469 192.536 79.3548 194.968C79.5626 197.398 80.1638 199.35 80.5454 200.24L81.1559 199.958ZM80.3934 202.017C81.1522 201.667 81.4937 200.745 81.1559 199.958L80.5454 200.24C80.7329 200.677 80.5434 201.189 80.1217 201.384L80.3934 202.017ZM78.4081 201.226C78.746 202.013 79.6345 202.368 80.3934 202.017L80.1217 201.384C79.7003 201.578 79.2064 201.382 79.019 200.944L78.4081 201.226ZM78.4081 185.787C75.6052 192.323 77.5226 199.161 78.4081 201.226L79.019 200.944C78.1712 198.968 76.3243 192.352 79.019 186.069L78.4081 185.787ZM80.3934 184.996C79.6345 184.646 78.746 185 78.4081 185.787L79.019 186.069C79.2064 185.631 79.7003 185.435 80.1217 185.629L80.3934 184.996ZM81.1562 187.055C81.4937 186.268 81.1522 185.346 80.3934 184.996L80.1217 185.629C80.5434 185.824 80.7329 186.336 80.5454 186.773L81.1562 187.055ZM39.3538 174.202C36.8108 186.725 36.81 194.423 38.6774 206.779L39.3376 206.672C37.4816 194.391 37.4831 186.778 40.0077 174.345L39.3538 174.202ZM38.7075 173.172C39.1597 173.273 39.4488 173.734 39.3538 174.202L40.0077 174.345C40.1788 173.502 39.6589 172.674 38.8472 172.494L38.7075 173.172ZM37.7191 173.838C37.8139 173.37 38.256 173.072 38.7075 173.172L38.8472 172.494C38.0347 172.314 37.2363 172.851 37.0651 173.695L37.7191 173.838ZM37.027 207.04C35.1313 194.497 35.1305 186.585 37.7191 173.838L37.0651 173.695C34.4582 186.533 34.4597 194.529 36.3668 207.148L37.027 207.04ZM37.9826 207.766C37.527 207.839 37.0987 207.514 37.027 207.04L36.3668 207.148C36.4953 207.998 37.2638 208.582 38.0842 208.451L37.9826 207.766ZM38.6774 206.779C38.7489 207.252 38.4376 207.694 37.9826 207.766L38.0842 208.451C38.9054 208.321 39.4663 207.523 39.3376 206.672L38.6774 206.779ZM49.3152 221.078C41.4527 209.156 38.6619 186.13 47.7576 162.708L47.1377 162.449C37.9796 186.031 40.7461 209.312 48.7636 221.47L49.3152 221.078ZM48.9221 223.247C49.6069 222.76 49.784 221.789 49.3152 221.078L48.7636 221.47C49.0233 221.863 48.9261 222.403 48.5441 222.675L48.9221 223.247ZM46.8321 222.844C47.3011 223.555 48.2371 223.734 48.9221 223.247L48.5441 222.675C48.1624 222.947 47.6432 222.846 47.3837 222.452L46.8321 222.844ZM44.9687 161.547C35.5911 185.695 38.2739 209.866 46.8321 222.844L47.3837 222.452C38.9806 209.71 36.2734 185.793 45.5886 161.806L44.9687 161.547ZM46.9249 160.679C46.1542 160.359 45.2789 160.748 44.9687 161.547L45.5886 161.806C45.7616 161.361 46.2491 161.145 46.6764 161.323L46.9249 160.679ZM47.7576 162.708C48.0681 161.908 47.6961 161 46.9249 160.679L46.6764 161.323C47.1032 161.5 47.3106 162.004 47.1377 162.449L47.7576 162.708ZM45.7235 187.089C45.3843 205.146 49.7951 214.403 53.0607 218.483L53.5749 218.04C50.4376 214.121 46.0548 205.04 46.3917 187.103L45.7235 187.089ZM44.9174 186.223C45.3691 186.223 45.7326 186.606 45.7235 187.089L46.3917 187.103C46.4079 186.239 45.7505 185.53 44.9176 185.53L44.9174 186.223ZM44.0656 187.102C44.0747 186.614 44.4604 186.222 44.9174 186.223L44.9176 185.53C44.0898 185.529 43.4135 186.23 43.3974 187.089L44.0656 187.102ZM51.7807 219.63C48.2045 215.162 43.7206 205.466 44.0656 187.102L43.3974 187.089C43.0502 205.572 47.5619 215.444 51.2665 220.073L51.7807 219.63ZM52.9443 219.718C52.5864 220.035 52.0671 219.988 51.7807 219.63L51.2665 220.073C51.7981 220.737 52.7454 220.806 53.3783 220.245L52.9443 219.718ZM53.0607 218.483C53.3496 218.844 53.3049 219.399 52.9443 219.718L53.3783 220.245C54.0086 219.687 54.1041 218.702 53.5749 218.04L53.0607 218.483ZM50.528 196.707C49.1499 185.15 51.2512 174.166 55.9879 166.152L55.4182 165.79C50.5896 173.959 48.4713 185.106 49.8647 196.792L50.528 196.707ZM49.2202 198.435C50.0476 198.341 50.6302 197.564 50.528 196.707L49.8647 196.792C49.9219 197.272 49.5979 197.695 49.1476 197.746L49.2202 198.435ZM47.5512 197.054C47.6529 197.907 48.3966 198.529 49.2202 198.435L49.1476 197.746C48.6934 197.798 48.2721 197.453 48.2145 196.969L47.5512 197.054ZM53.4287 164.487C48.2836 173.192 46.103 184.909 47.5512 197.054L48.2145 196.969C46.7816 184.953 48.9452 173.399 53.9984 164.85L53.4287 164.487ZM55.4945 163.998C54.7907 163.538 53.8637 163.752 53.4287 164.487L53.9984 164.85C54.2348 164.45 54.7428 164.326 55.1378 164.585L55.4945 163.998ZM55.9879 166.152C56.421 165.42 56.1954 164.457 55.4945 163.998L55.1378 164.585C55.5355 164.845 55.6564 165.387 55.4182 165.79L55.9879 166.152ZM54.8646 176.807C51.2066 194.131 54.6819 206.853 60.9717 215.369L61.5022 214.947C55.3481 206.616 51.8956 194.108 55.5174 176.955L54.8646 176.807ZM54.2357 175.784C54.6793 175.879 54.9645 176.334 54.8646 176.807L55.5174 176.955C55.6954 176.112 55.1859 175.28 54.3714 175.105L54.2357 175.784ZM53.2393 176.465C53.3398 175.989 53.7892 175.688 54.2357 175.784L54.3714 175.105C53.5598 174.931 52.7639 175.477 52.5865 176.317L53.2393 176.465ZM59.6462 216.449C53.0261 207.487 49.4884 194.23 53.2393 176.465L52.5865 176.317C48.7995 194.252 52.3599 207.724 59.1157 216.871L59.6462 216.449ZM60.8102 216.592C60.4408 216.892 59.9211 216.822 59.6462 216.449L59.1157 216.871C59.6214 217.556 60.5656 217.67 61.2212 217.139L60.8102 216.592ZM60.9717 215.369C61.2481 215.743 61.1812 216.292 60.8102 216.592L61.2212 217.139C61.8752 216.61 62.0065 215.63 61.5022 214.947L60.9717 215.369ZM59.2671 202.598C57.5088 194.033 56.3577 185.585 60.2657 171.773L59.6244 171.578C55.6752 185.535 56.8407 194.107 58.6135 202.742L59.2671 202.598ZM58.109 204.446C58.9221 204.269 59.4402 203.441 59.2671 202.598L58.6135 202.742C58.7097 203.211 58.4219 203.669 57.9717 203.767L58.109 204.446ZM56.326 203.24C56.4989 204.082 57.2967 204.622 58.109 204.446L57.9717 203.767C57.5208 203.865 57.0761 203.565 56.9797 203.096L56.326 203.24ZM57.3801 170.887C53.2871 185.353 54.5026 194.358 56.326 203.24L56.9797 203.096C55.1707 194.284 53.9695 185.403 58.0213 171.082L57.3801 170.887ZM59.247 169.834C58.4504 169.589 57.6141 170.06 57.3801 170.887L58.0213 171.082C58.1509 170.624 58.614 170.363 59.057 170.499L59.247 169.834ZM60.2657 171.773C60.4994 170.946 60.0429 170.079 59.247 169.834L59.057 170.499C59.5006 170.635 59.7542 171.119 59.6244 171.578L60.2657 171.773ZM62.3833 176.81C59.078 192.524 61.4919 202.184 66.0758 211.538L66.6715 211.224C62.1514 202 59.7666 192.502 63.0362 176.958L62.3833 176.81ZM61.7504 175.786C62.1968 175.883 62.4823 176.339 62.3833 176.81L63.0362 176.958C63.2135 176.115 62.7012 175.284 61.8873 175.108L61.7504 175.786ZM60.7541 176.462C60.8536 175.989 61.3017 175.689 61.7504 175.786L61.8873 175.108C61.0756 174.931 60.278 175.474 60.1012 176.314L60.7541 176.462ZM64.5877 212.345C59.8472 202.671 57.3585 192.605 60.7541 176.462L60.1012 176.314C56.67 192.626 59.1877 202.855 63.992 212.659L64.5877 212.345ZM65.7061 212.711C65.2935 212.933 64.7943 212.766 64.5877 212.345L63.992 212.659C64.3688 213.428 65.2755 213.724 66.0137 213.327L65.7061 212.711ZM66.0758 211.538C66.2834 211.962 66.1206 212.489 65.7061 212.711L66.0137 213.327C66.75 212.931 67.0474 211.991 66.6715 211.224L66.0758 211.538ZM66.9913 200.902C65.2366 196.049 63.704 185.491 68.6888 172.675L68.0693 172.415C63.0188 185.4 64.5547 196.138 66.3654 201.145L66.9913 200.902ZM66.1119 202.908C66.891 202.608 67.283 201.709 66.9913 200.902L66.3654 201.145C66.5285 201.595 66.3091 202.092 65.8796 202.257L66.1119 202.908ZM64.177 201.987C64.4685 202.793 65.3337 203.207 66.1119 202.908L65.8796 202.257C65.4491 202.423 64.9659 202.195 64.8027 201.743L64.177 201.987ZM65.9002 171.495C60.6222 185.065 62.1685 196.433 64.177 201.987L64.8027 201.743C62.8503 196.344 61.3074 185.156 66.5201 171.755L65.9002 171.495ZM67.8577 170.641C67.0885 170.315 66.2112 170.696 65.9002 171.495L66.5201 171.755C66.6915 171.313 67.1764 171.101 67.6051 171.283L67.8577 170.641ZM68.6888 172.675C68.9996 171.876 68.626 170.967 67.8577 170.641L67.6051 171.283C68.0345 171.465 68.241 171.973 68.0693 172.415L68.6888 172.675ZM69.0133 183.753C67.0016 193.26 70.1738 203.601 73.7774 208.845L74.3217 208.443C70.812 203.335 67.7 193.191 69.6659 183.902L69.0133 183.753ZM68.3867 182.73C68.8285 182.825 69.1135 183.278 69.0133 183.753L69.6659 183.902C69.8443 183.059 69.3367 182.226 68.522 182.051L68.3867 182.73ZM67.3906 183.414C67.4918 182.936 67.9416 182.635 68.3867 182.73L68.522 182.051C67.7104 181.877 66.9157 182.426 66.738 183.266L67.3906 183.414ZM72.4207 209.885C68.5905 204.31 65.2611 193.478 67.3906 183.414L66.738 183.266C64.5624 193.546 67.9523 204.576 71.8763 210.287L72.4207 209.885ZM73.5759 210.066C73.1976 210.353 72.6823 210.266 72.4207 209.885L71.8763 210.287C72.3592 210.99 73.2988 211.135 73.9705 210.626L73.5759 210.066ZM73.7774 208.845C74.041 209.229 73.9565 209.777 73.5759 210.066L73.9705 210.626C74.6398 210.118 74.8025 209.143 74.3217 208.443L73.7774 208.845ZM73.1906 196.52C71.7286 191.271 72.1754 185.349 75.9273 179.829L75.381 179.43C71.5004 185.139 71.0362 191.283 72.5486 196.712L73.1906 196.52ZM72.1664 198.446C72.9674 198.215 73.4215 197.349 73.1906 196.52L72.5486 196.712C72.6786 197.179 72.4227 197.652 71.9869 197.778L72.1664 198.446ZM70.3095 197.359C70.5394 198.185 71.3677 198.677 72.1664 198.446L71.9869 197.778C71.5488 197.905 71.082 197.635 70.9514 197.166L70.3095 197.359ZM73.4716 178.003C69.1476 184.363 68.6169 191.283 70.3095 197.359L70.9514 197.166C69.3093 191.271 69.8229 184.573 74.0176 178.402L73.4716 178.003ZM75.5644 177.649C74.8898 177.145 73.9508 177.298 73.4716 178.003L74.0176 178.402C74.2783 178.019 74.7942 177.928 75.1738 178.212L75.5644 177.649ZM75.9273 179.829C76.4052 179.126 76.2374 178.152 75.5644 177.649L75.1738 178.212C75.5557 178.497 75.6433 179.044 75.381 179.43L75.9273 179.829ZM75.7927 191.473C74.8406 196.922 76.9288 202.475 79.0764 205.069L79.5837 204.617C77.5553 202.168 75.5374 196.823 76.4503 191.596L75.7927 191.473ZM75.1334 190.476C75.5758 190.552 75.8765 190.992 75.7927 191.473L76.4503 191.596C76.5987 190.747 76.064 189.933 75.2426 189.792L75.1334 190.476ZM74.1626 191.203C74.2472 190.719 74.6869 190.399 75.1334 190.476L75.2426 189.792C74.4256 189.651 73.653 190.233 73.505 191.079L74.1626 191.203ZM77.8147 206.238C75.3823 203.3 73.1097 197.232 74.1626 191.203L73.505 191.079C72.413 197.331 74.7561 203.608 77.3074 206.689L77.8147 206.238ZM78.9795 206.305C78.6263 206.629 78.1064 206.59 77.8147 206.238L77.3074 206.689C77.8497 207.344 78.7981 207.397 79.422 206.825L78.9795 206.305ZM79.0764 205.069C79.3708 205.424 79.3351 205.979 78.9795 206.305L79.422 206.825C80.0432 206.256 80.1234 205.269 79.5837 204.617L79.0764 205.069Z" fill="#BCB255"/>
</g>
<path d="M103.675 192.46C103.675 193.403 102.866 194.193 101.837 194.193C100.808 194.193 99.9988 193.403 99.9988 192.46C99.9988 191.517 100.808 190.727 101.837 190.727C102.866 190.727 103.675 191.517 103.675 192.46Z" fill="#BCB255" stroke="#BCB255"/>
</g>
<rect x="30.5" y="56.5" width="141" height="272" stroke="#BCB255" stroke-width="3"/>
<path d="M15.776 79.416C14.3893 79.416 13.1627 79.2133 12.096 78.808C11.0293 78.3813 10.1973 77.816 9.6 77.112C9.024 76.3867 8.736 75.576 8.736 74.68C8.736 73.9333 8.93867 73.3147 9.344 72.824C9.74933 72.3333 10.336 72.088 11.104 72.088C11.7227 72.088 12.192 72.248 12.512 72.568C12.8533 72.8667 13.024 73.2827 13.024 73.816C13.024 74.2853 12.9173 74.648 12.704 74.904C12.4907 75.1387 12.2347 75.3307 11.936 75.48C11.6587 75.608 11.4133 75.736 11.2 75.864C10.9867 75.9707 10.88 76.1413 10.88 76.376C10.88 76.6533 11.072 76.952 11.456 77.272C11.8613 77.592 12.4373 77.8693 13.184 78.104C13.9307 78.3387 14.816 78.456 15.84 78.456C17.8027 78.456 19.328 77.9973 20.416 77.08C21.5253 76.1627 22.08 74.936 22.08 73.4C22.08 72.6533 21.952 72.0453 21.696 71.576C21.44 71.1067 21.056 70.7227 20.544 70.424C20.0533 70.104 19.4347 69.8373 18.688 69.624C17.9413 69.3893 17.0773 69.144 16.096 68.888C15.136 68.632 14.2507 68.3333 13.44 67.992C12.6507 67.6507 11.9573 67.2347 11.36 66.744C10.784 66.232 10.336 65.6133 10.016 64.888C9.696 64.1627 9.536 63.3093 9.536 62.328C9.536 60.8133 9.888 59.5547 10.592 58.552C11.296 57.5493 12.224 56.8027 13.376 56.312C14.528 55.8 15.776 55.544 17.12 55.544C18.3573 55.544 19.424 55.736 20.32 56.12C21.216 56.504 21.9093 57.0267 22.4 57.688C22.8907 58.3493 23.136 59.1067 23.136 59.96C23.136 60.6853 22.9547 61.2613 22.592 61.688C22.2507 62.0933 21.8027 62.296 21.248 62.296C20.8427 62.296 20.4587 62.1787 20.096 61.944C19.7547 61.7093 19.584 61.3147 19.584 60.76C19.584 60.3547 19.6693 60.056 19.84 59.864C20.0107 59.672 20.2133 59.5227 20.448 59.416C20.6827 59.288 20.8853 59.16 21.056 59.032C21.2267 58.904 21.312 58.712 21.312 58.456C21.312 57.9653 20.928 57.5173 20.16 57.112C19.4133 56.7067 18.3787 56.504 17.056 56.504C16.0533 56.504 15.1253 56.6533 14.272 56.952C13.44 57.2507 12.768 57.72 12.256 58.36C11.7653 59 11.52 59.8427 11.52 60.888C11.52 61.5707 11.648 62.1467 11.904 62.616C12.1813 63.064 12.7147 63.4907 13.504 63.896C14.3147 64.3013 15.52 64.76 17.12 65.272C18.08 65.592 18.976 65.9227 19.808 66.264C20.64 66.6053 21.3653 67.0213 21.984 67.512C22.6027 68.0027 23.0827 68.6107 23.424 69.336C23.7867 70.0613 23.968 70.968 23.968 72.056C23.968 73.4853 23.648 74.7547 23.008 75.864C22.368 76.9733 21.4293 77.848 20.192 78.488C18.976 79.1067 17.504 79.416 15.776 79.416ZM14.176 82.616V53.368H15.104V82.616H14.176ZM17.76 82.616V53.368H18.688V82.616H17.76Z" fill="#BCB255"/>
<path d="M184.224 305.584C185.611 305.584 186.837 305.787 187.904 306.192C188.971 306.619 189.803 307.184 190.4 307.888C190.976 308.613 191.264 309.424 191.264 310.32C191.264 311.067 191.061 311.685 190.656 312.176C190.251 312.667 189.664 312.912 188.896 312.912C188.277 312.912 187.808 312.752 187.488 312.432C187.147 312.133 186.976 311.717 186.976 311.184C186.976 310.715 187.083 310.352 187.296 310.096C187.509 309.861 187.765 309.669 188.064 309.52C188.341 309.392 188.587 309.264 188.8 309.136C189.013 309.029 189.12 308.859 189.12 308.624C189.12 308.347 188.928 308.048 188.544 307.728C188.139 307.408 187.563 307.131 186.816 306.896C186.069 306.661 185.184 306.544 184.16 306.544C182.197 306.544 180.672 307.003 179.584 307.92C178.475 308.837 177.92 310.064 177.92 311.6C177.92 312.347 178.048 312.955 178.304 313.424C178.56 313.893 178.944 314.277 179.456 314.576C179.947 314.896 180.565 315.163 181.312 315.376C182.059 315.611 182.923 315.856 183.904 316.112C184.864 316.368 185.749 316.667 186.56 317.008C187.349 317.349 188.043 317.765 188.64 318.256C189.216 318.768 189.664 319.387 189.984 320.112C190.304 320.837 190.464 321.691 190.464 322.672C190.464 324.187 190.112 325.445 189.408 326.448C188.704 327.451 187.776 328.197 186.624 328.688C185.472 329.2 184.224 329.456 182.88 329.456C181.643 329.456 180.576 329.264 179.68 328.88C178.784 328.496 178.091 327.973 177.6 327.312C177.109 326.651 176.864 325.893 176.864 325.04C176.864 324.315 177.045 323.739 177.408 323.312C177.749 322.907 178.197 322.704 178.752 322.704C179.157 322.704 179.541 322.821 179.904 323.056C180.245 323.291 180.416 323.685 180.416 324.24C180.416 324.645 180.331 324.944 180.16 325.136C179.989 325.328 179.787 325.477 179.552 325.584C179.317 325.712 179.115 325.84 178.944 325.968C178.773 326.096 178.688 326.288 178.688 326.544C178.688 327.035 179.072 327.483 179.84 327.888C180.587 328.293 181.621 328.496 182.944 328.496C183.947 328.496 184.875 328.347 185.728 328.048C186.56 327.749 187.232 327.28 187.744 326.64C188.235 326 188.48 325.157 188.48 324.112C188.48 323.429 188.352 322.853 188.096 322.384C187.819 321.936 187.285 321.509 186.496 321.104C185.685 320.699 184.48 320.24 182.88 319.728C181.92 319.408 181.024 319.077 180.192 318.736C179.36 318.395 178.635 317.979 178.016 317.488C177.397 316.997 176.917 316.389 176.576 315.664C176.213 314.939 176.032 314.032 176.032 312.944C176.032 311.515 176.352 310.245 176.992 309.136C177.632 308.027 178.571 307.152 179.808 306.512C181.024 305.893 182.496 305.584 184.224 305.584ZM185.824 302.384V331.632H184.896V302.384H185.824ZM182.24 302.384V331.632H181.312V302.384H182.24Z" fill="#BCB255"/>
<path d="M146.877 291.616C148.434 291.616 149.896 291.947 151.261 292.608C152.605 293.291 153.778 294.208 154.781 295.36C155.784 296.533 156.573 297.867 157.149 299.36C157.704 300.853 157.981 302.421 157.981 304.064C157.981 305.707 157.693 307.275 157.117 308.768C156.541 310.261 155.752 311.584 154.749 312.736C153.725 313.909 152.53 314.827 151.165 315.488C149.8 316.171 148.338 316.512 146.781 316.512C145.778 316.512 144.84 316.352 143.965 316.032C143.069 315.712 142.216 315.211 141.405 314.528L140.157 316.128H139.357V308.896H140.157C140.392 310.091 140.765 311.189 141.277 312.192C141.789 313.216 142.493 314.027 143.389 314.624C144.264 315.243 145.405 315.552 146.813 315.552C147.73 315.552 148.562 315.381 149.309 315.04C150.034 314.72 150.664 314.133 151.197 313.28C151.73 312.448 152.146 311.285 152.445 309.792C152.722 308.299 152.861 306.389 152.861 304.064C152.861 301.739 152.722 299.829 152.445 298.336C152.168 296.843 151.773 295.669 151.261 294.816C150.728 293.984 150.098 293.397 149.373 293.056C148.626 292.736 147.794 292.576 146.877 292.576C145.405 292.576 144.2 292.853 143.261 293.408C142.322 293.963 141.586 294.709 141.053 295.648C140.52 296.587 140.125 297.632 139.869 298.784H139.069V292H139.869L140.957 293.472C141.81 292.832 142.749 292.363 143.773 292.064C144.797 291.765 145.832 291.616 146.877 291.616ZM116.268 291.616C117.42 291.616 118.359 291.947 119.084 292.608C119.81 293.269 120.172 294.133 120.172 295.2C120.172 296.224 119.831 297.099 119.148 297.824C118.444 298.549 117.452 299.104 116.172 299.488C114.892 299.893 113.378 300.096 111.628 300.096V304C111.628 304.555 111.842 304.992 112.268 305.312C112.695 305.632 113.282 305.792 114.028 305.792C114.668 305.792 115.191 305.685 115.596 305.472C116.002 305.259 116.204 304.981 116.204 304.64C116.204 304.427 116.13 304.235 115.98 304.064C115.831 303.893 115.756 303.627 115.756 303.264C115.756 302.816 115.927 302.443 116.268 302.144C116.588 301.867 117.004 301.728 117.516 301.728C118.028 301.728 118.434 301.877 118.732 302.176C119.031 302.496 119.18 302.891 119.18 303.36C119.18 304 118.924 304.576 118.412 305.088C117.9 305.621 117.207 306.037 116.332 306.336C115.458 306.635 114.476 306.784 113.388 306.784C111.831 306.784 110.562 306.475 109.58 305.856C108.599 305.259 108.108 304.469 108.108 303.488L108.108 293.76C108.108 293.547 108.044 293.365 107.916 293.216C107.767 293.088 107.596 293.024 107.404 293.024C107.212 293.024 106.988 293.12 106.732 293.312C106.476 293.525 106.156 293.845 105.772 294.272L105.324 293.76C106.327 292.331 107.447 291.616 108.684 291.616C109.431 291.616 110.05 291.819 110.54 292.224C111.01 292.651 111.33 293.237 111.5 293.984H111.628C112.034 293.301 112.674 292.736 113.548 292.288C114.423 291.84 115.33 291.616 116.268 291.616ZM114.348 293.376C113.538 293.376 112.887 293.675 112.396 294.272C111.884 294.891 111.628 295.691 111.628 296.672L111.628 299.264C113.228 299.264 114.434 298.965 115.244 298.368C116.055 297.792 116.46 296.939 116.46 295.808C116.46 295.04 116.279 294.443 115.916 294.016C115.532 293.589 115.01 293.376 114.348 293.376ZM88.4009 292V292.8H85.8729V305.6H88.4009V306.4H82.3529V303.872H82.2249C81.6916 305.024 81.0836 305.792 80.4009 306.176C79.6969 306.581 79.0462 306.784 78.4489 306.784C77.7662 306.784 77.2329 306.581 76.8489 306.176C76.4436 305.792 76.2409 305.237 76.2409 304.512C76.2409 303.851 76.4436 303.36 76.8489 303.04C77.2329 302.741 77.6702 302.592 78.1609 302.592C78.5662 302.592 78.9396 302.699 79.2809 302.912C79.6009 303.147 79.7609 303.467 79.7609 303.872C79.7609 304 79.7502 304.107 79.7289 304.192C79.6862 304.299 79.6649 304.405 79.6649 304.512C79.6649 304.619 79.6969 304.715 79.7609 304.8C79.8249 304.885 79.9636 304.928 80.1769 304.928C80.4542 304.928 80.7636 304.704 81.1049 304.256C81.4462 303.829 81.7449 303.243 82.0009 302.496C82.2356 301.771 82.3529 300.96 82.3529 300.064V292.8H79.4729V292H88.4009ZM51.9904 291.616C53.0571 291.616 54.0704 291.925 55.0304 292.544C55.9691 293.184 56.7371 294.069 57.3344 295.2C57.9104 296.352 58.1984 297.685 58.1984 299.2C58.1984 300.715 57.9104 302.037 57.3344 303.168C56.7371 304.32 55.9691 305.205 55.0304 305.824C54.0917 306.464 53.0891 306.784 52.0224 306.784C51.0197 306.784 50.1451 306.571 49.3984 306.144C48.6304 305.717 48.0757 305.184 47.7344 304.544H46.9664L47.6064 299.68C47.6064 301.771 47.9904 303.296 48.7584 304.256C49.5051 305.216 50.4544 305.696 51.6064 305.696C52.2037 305.696 52.6837 305.515 53.0464 305.152C53.4091 304.811 53.6757 304.171 53.8464 303.232C54.0171 302.293 54.1024 300.939 54.1024 299.168C54.1024 297.419 54.0277 296.075 53.8784 295.136C53.7077 294.197 53.4411 293.557 53.0784 293.216C52.7157 292.875 52.2357 292.704 51.6384 292.704C50.4864 292.704 49.5264 293.184 48.7584 294.144C47.9904 295.125 47.6064 296.651 47.6064 298.72L46.9664 293.856H47.7344C48.0757 293.216 48.6197 292.683 49.3664 292.256C50.1131 291.829 50.9877 291.616 51.9904 291.616ZM47.6064 292V292.8L41.9104 292.8V292H47.6064ZM47.6064 292.48L47.6064 315.616H44.0864L44.0864 292.48H47.6064ZM50.7744 315.328V316.128H44.0864V315.328H50.7744Z" fill="#BCB255"/>
<path d="M50.9039 78.616V77.656H53.5599C54.8399 77.656 55.8745 77.5173 56.6639 77.24C57.4745 76.9627 58.0612 76.44 58.4239 75.672C58.8079 74.8827 58.9999 73.752 58.9999 72.28C58.9999 70.9787 58.8612 70.008 58.5839 69.368C58.3065 68.7067 57.8799 68.2587 57.3039 68.024C56.7492 67.7893 56.0345 67.672 55.1599 67.672H44.0879V66.872H56.4399C57.8265 66.872 59.0852 67.096 60.2159 67.544C61.3679 67.9707 62.2745 68.5893 62.9359 69.4C63.6185 70.2107 63.9599 71.2027 63.9599 72.376C63.9599 73.6133 63.5439 74.7013 62.7119 75.64C61.8799 76.5787 60.6852 77.3147 59.1279 77.848C57.5919 78.36 55.7359 78.616 53.5599 78.616H50.9039ZM44.0879 91V90.2H56.0559V91H44.0879ZM47.6079 90.52V66.872H51.8959V90.52H47.6079ZM63.9599 91C62.9145 91 61.9652 90.7973 61.1119 90.392C60.2799 89.9867 59.6185 89.4213 59.1279 88.696C58.6372 87.9493 58.3705 87.0853 58.3279 86.104L58.2319 83.576C58.1679 81.8907 57.7305 80.6427 56.9199 79.832C56.1092 79.0213 55.0745 78.616 53.8159 78.616L56.2479 78.264H57.4319V78.392C58.3492 78.6053 59.2239 79.0213 60.0559 79.64C60.9092 80.2587 61.6132 81.0053 62.1679 81.88C62.7225 82.7547 62.9999 83.704 62.9999 84.728V86.392C62.9999 87.864 63.1599 88.8667 63.4799 89.4C63.7999 89.9333 64.3759 90.2 65.2079 90.2H66.4239V91H63.9599ZM85.4449 90.52V77.4H88.9649V90.52H85.4449ZM82.9169 91V90.2H91.5249V91H82.9169ZM82.5969 77.688V76.888H88.9649V77.688H82.5969ZM87.1409 71.864C86.5649 71.864 86.0635 71.6613 85.6369 71.256C85.2315 70.8293 85.0289 70.328 85.0289 69.752C85.0289 69.176 85.2315 68.6853 85.6369 68.28C86.0635 67.8533 86.5649 67.64 87.1409 67.64C87.7169 67.64 88.2075 67.8533 88.6129 68.28C89.0395 68.6853 89.2529 69.176 89.2529 69.752C89.2529 70.328 89.0395 70.8293 88.6129 71.256C88.2075 71.6613 87.7169 71.864 87.1409 71.864ZM117.351 91.384C116.327 91.384 115.367 91.1707 114.471 90.744C113.575 90.3173 112.786 89.7413 112.103 89.016C111.421 88.2907 110.887 87.48 110.503 86.584C110.119 85.6667 109.927 84.728 109.927 83.768C109.927 82.8293 110.119 81.912 110.503 81.016C110.887 80.12 111.421 79.3093 112.103 78.584C112.786 77.8587 113.597 77.2827 114.535 76.856C115.474 76.4293 116.498 76.216 117.607 76.216C118.546 76.216 119.399 76.376 120.167 76.696C120.957 76.9947 121.575 77.4213 122.023 77.976C122.493 78.5093 122.727 79.1387 122.727 79.864C122.727 80.4827 122.546 80.9733 122.183 81.336C121.821 81.6987 121.362 81.88 120.807 81.88C120.295 81.88 119.837 81.7307 119.431 81.432C119.026 81.1333 118.823 80.6853 118.823 80.088C118.823 79.7253 118.887 79.448 119.015 79.256C119.143 79.064 119.271 78.8933 119.399 78.744C119.527 78.5733 119.591 78.36 119.591 78.104C119.591 77.7413 119.421 77.4853 119.079 77.336C118.738 77.1653 118.237 77.08 117.575 77.08C116.743 77.08 116.071 77.2613 115.559 77.624C115.047 77.9867 114.674 78.6587 114.439 79.64C114.205 80.6 114.087 81.9973 114.087 83.832C114.087 85.56 114.194 86.904 114.407 87.864C114.621 88.824 114.973 89.496 115.463 89.88C115.954 90.2427 116.615 90.424 117.447 90.424C118.621 90.424 119.591 90.104 120.359 89.464C121.149 88.824 121.831 87.7467 122.407 86.232H123.303C122.898 87.768 122.183 89.016 121.159 89.976C120.157 90.9147 118.887 91.384 117.351 91.384ZM152.938 90.52V79.704C152.938 78.8933 152.756 78.296 152.394 77.912C152.052 77.5067 151.562 77.304 150.922 77.304C150.196 77.304 149.524 77.592 148.906 78.168C148.308 78.744 147.828 79.5333 147.466 80.536C147.124 81.5173 146.954 82.6373 146.954 83.896L146.314 79.256H147.082C147.551 78.3813 148.18 77.656 148.97 77.08C149.759 76.504 150.783 76.216 152.042 76.216C153.343 76.216 154.399 76.5573 155.21 77.24C156.042 77.9013 156.458 78.7227 156.458 79.704V90.52H152.938ZM140.906 91V90.2H149.034V91H140.906ZM150.506 91V90.2H158.634V91H150.506ZM143.434 90.52V67.384H146.954V90.52H143.434ZM140.906 67.672V66.872H146.954V67.672H140.906Z" fill="#BCB255"/>
<defs>
<clipPath id="clip0_0_1">
<rect width="135" height="139" fill="white" transform="translate(33 124)"/>
</clipPath>
</defs>
</svg>
