<svg width="841" height="654" viewBox="0 0 841 654" fill="none" xmlns="http://www.w3.org/2000/svg">
<path fill-rule="evenodd" clip-rule="evenodd" d="M169.56 338H175.679V315.898C160.945 315.898 149.979 314.87 142.783 312.814C135.587 310.758 130.79 306.303 128.391 299.45C125.993 292.597 124.793 282.317 124.793 268.61V188.94H135.073C143.983 188.94 150.665 189.968 155.119 192.024C159.917 194.08 164.543 199.049 168.997 206.93C174.137 215.154 178.763 222.864 182.875 230.06C187.33 237.256 192.127 245.309 197.267 254.218C202.75 262.785 209.261 273.75 216.799 287.114C222.276 296.822 228.837 308.428 236.483 321.934L127.412 584.308H124.328V379.736C124.328 368.428 125.356 359.69 127.412 353.522C129.468 347.697 133.751 343.585 140.262 341.186C146.772 339.13 156.538 338.102 169.56 338.102V338ZM3.53756 338H0.405405V315.898C13.4267 315.898 23.3641 314.87 30.2174 312.814C37.0707 310.758 41.6967 306.303 44.0954 299.45C46.8367 292.597 48.2074 282.145 48.2074 268.096V62.496C48.2074 52.216 47.0081 44.1633 44.6094 38.338C42.5534 32.5127 38.0987 28.4007 31.2454 26.002C24.3921 23.6033 14.1121 22.404 0.405405 22.404V0.301997H167.969C191.956 0.301997 214.058 3.04333 234.275 8.52598C254.835 13.666 271.283 22.5753 283.619 35.254C296.298 47.59 302.637 64.7233 302.637 86.654C302.637 105.501 298.868 120.749 291.329 132.4C283.791 144.051 273.853 153.131 261.517 159.642C249.181 166.153 235.817 171.121 221.425 174.548V177.118C226.908 180.545 232.733 186.199 238.901 194.08C245.069 201.619 253.465 212.927 264.087 228.004C274.71 243.081 289.273 263.641 307.777 289.684C315.659 300.992 323.711 308.188 331.935 311.272C340.269 314.272 350.062 315.813 361.314 315.895C374.333 315.828 383.989 314.802 390.282 312.814C397.136 310.758 401.59 305.789 403.646 297.908C406.045 290.027 407.244 277.348 407.244 259.872V70.206C407.244 57.1847 406.045 47.2473 403.646 40.394C401.59 33.5406 397.136 28.9147 390.282 26.516C383.772 23.7747 374.006 22.404 360.984 22.404V0.301997H505.418L602.05 238.284H606.162L702.28 0.301997H836.948V22.404C825.298 22.404 816.217 23.7747 809.706 26.516C803.196 28.9147 798.741 33.5406 796.342 40.394C793.944 47.2473 792.744 57.0133 792.744 69.692V274.264C792.744 285.572 793.944 294.31 796.342 300.478C799.084 306.303 803.71 310.415 810.22 312.814C816.731 314.87 825.812 315.898 837.462 315.898V316H840.595V338.102C827.573 338.102 817.636 339.13 810.783 341.186C803.929 343.242 799.303 347.697 796.905 354.55C794.163 361.403 792.793 371.855 792.793 385.904V591.504C792.793 601.784 793.992 609.837 796.391 615.662C798.447 621.487 802.901 625.599 809.755 627.998C816.608 630.397 826.888 631.596 840.595 631.596V653.698H673.031C649.044 653.698 626.942 650.957 606.725 645.474C586.165 640.334 569.717 631.425 557.381 618.746C544.702 606.41 538.363 589.277 538.363 567.346C538.363 548.499 542.132 533.251 549.671 521.6C557.209 509.949 567.147 500.869 579.483 494.358C591.819 487.847 605.183 482.879 619.575 479.452V476.882C614.092 473.455 608.267 467.801 602.099 459.92C595.931 452.381 587.535 441.073 576.913 425.996C566.29 410.919 551.727 390.359 533.223 364.316C525.341 353.008 517.289 345.812 509.065 342.728C500.731 339.728 490.938 338.187 479.686 338.105C466.667 338.172 457.011 339.198 450.718 341.186C443.864 343.242 439.41 348.211 437.354 356.092C434.955 363.973 433.756 376.652 433.756 394.128V583.794C433.756 596.815 434.955 606.753 437.354 613.606C439.41 620.459 443.864 625.085 450.718 627.484C457.228 630.225 466.994 631.596 480.016 631.596V653.698H335.582L238.95 415.716H234.838L138.72 653.698H4.05155V631.596C15.7022 631.596 24.7829 630.225 31.2936 627.484C37.8042 625.085 42.2589 620.459 44.6575 613.606C47.0562 606.753 48.2556 596.987 48.2556 584.308V379.736C48.2556 368.428 47.0562 359.69 44.6575 353.522C41.9162 347.697 37.2902 343.585 30.7795 341.186C24.2689 339.13 15.1882 338.102 3.53756 338.102V338ZM490.512 316H552.172L448.364 69.692H445.28V259.872C445.28 277.348 446.308 290.027 448.364 297.908C450.763 305.789 455.218 310.758 461.728 312.814C468.239 314.87 477.834 315.898 490.512 315.898V316ZM604.517 332.066C612.163 345.572 618.724 357.178 624.201 366.886C631.739 380.25 638.25 391.215 643.733 399.782C648.873 408.691 653.67 416.744 658.125 423.94C662.237 431.136 666.863 438.846 672.003 447.07C676.457 454.951 681.083 459.92 685.881 461.976C690.335 464.032 697.017 465.06 705.927 465.06H716.207V385.39C716.207 371.683 715.007 361.403 712.609 354.55C710.21 347.697 705.413 343.242 698.217 341.186C691.021 339.13 680.055 338.102 665.321 338.102V316H671.44V315.898C684.462 315.898 694.228 314.87 700.738 312.814C707.249 310.415 711.532 306.303 713.588 300.478C715.644 294.31 716.672 285.572 716.672 274.264V69.692H713.588L604.517 332.066ZM350.488 338H288.828L392.636 584.308H395.72V394.128C395.72 376.652 394.692 363.973 392.636 356.092C390.237 348.211 385.782 343.242 379.272 341.186C372.761 339.13 363.166 338.102 350.488 338.102V338ZM144.325 164.268L124.793 163.754V27.03C129.591 26.3446 134.559 26.002 139.699 26.002C144.839 25.6593 150.151 25.488 155.633 25.488C179.62 25.488 196.753 31.4846 207.033 43.478C217.656 55.1287 222.967 70.72 222.967 90.252C222.967 108.756 219.883 123.319 213.715 133.942C207.89 144.222 199.152 151.589 187.501 156.044C175.851 160.499 161.459 163.24 144.325 164.268ZM696.675 489.732L716.207 490.246V626.97C711.409 627.655 706.441 627.998 701.301 627.998C696.161 628.341 690.849 628.512 685.367 628.512C661.38 628.512 644.247 622.515 633.967 610.522C623.344 598.871 618.033 583.28 618.033 563.748C618.033 545.244 621.117 530.681 627.285 520.058C633.11 509.778 641.848 502.411 653.499 497.956C665.149 493.501 679.541 490.76 696.675 489.732Z" fill="#008800"/>
</svg>
